<svg xmlns="http://www.w3.org/2000/svg" xmlns:xlink="http://www.w3.org/1999/xlink" width="500" zoomAndPan="magnify" viewBox="0 0 375 374.999991" height="500" preserveAspectRatio="xMidYMid meet" version="1.0"><defs><g/><clipPath id="c9869ecc72"><path d="M 101 119 L 266 119 L 266 244 L 101 244 Z M 101 119 " clip-rule="nonzero"/></clipPath><clipPath id="b9f93a7c4e"><path d="M 123.285156 86.808594 L 295.699219 138.507812 L 251.753906 285.0625 L 79.339844 233.359375 Z M 123.285156 86.808594 " clip-rule="nonzero"/></clipPath><clipPath id="782bcd5600"><path d="M 123.285156 86.808594 L 295.699219 138.507812 L 251.753906 285.0625 L 79.339844 233.359375 Z M 123.285156 86.808594 " clip-rule="nonzero"/></clipPath><clipPath id="bcbf0396f1"><path d="M 123.285156 86.808594 L 295.699219 138.507812 L 251.753906 285.0625 L 79.339844 233.359375 Z M 123.285156 86.808594 " clip-rule="nonzero"/></clipPath><clipPath id="da13794a8b"><path d="M 170 106 L 206 106 L 206 143 L 170 143 Z M 170 106 " clip-rule="nonzero"/></clipPath><clipPath id="c5fd4b986a"><path d="M 123.285156 86.808594 L 295.699219 138.507812 L 251.753906 285.0625 L 79.339844 233.359375 Z M 123.285156 86.808594 " clip-rule="nonzero"/></clipPath><clipPath id="57ecca024d"><path d="M 123.285156 86.808594 L 295.699219 138.507812 L 251.753906 285.0625 L 79.339844 233.359375 Z M 123.285156 86.808594 " clip-rule="nonzero"/></clipPath><clipPath id="0f9e77181c"><path d="M 123.285156 86.808594 L 295.699219 138.507812 L 251.753906 285.0625 L 79.339844 233.359375 Z M 123.285156 86.808594 " clip-rule="nonzero"/></clipPath><clipPath id="7c079b4050"><rect x="0" width="198" y="0" height="42"/></clipPath><clipPath id="c0b9fb7636"><rect x="0" width="83" y="0" height="13"/></clipPath></defs><g clip-path="url(#c9869ecc72)"><g clip-path="url(#b9f93a7c4e)"><g clip-path="url(#782bcd5600)"><g clip-path="url(#bcbf0396f1)"><path fill="#000000" d="M 265.835938 223.136719 C 265.785156 218.039062 264.980469 212.753906 263.539062 207.863281 C 256.003906 182.21875 242.019531 159.941406 226.492188 138.382812 C 227.292969 139.765625 228.125 141.15625 228.902344 142.605469 C 237.691406 158.792969 245.214844 175.523438 248.527344 193.789062 C 249.328125 198.226562 249.496094 202.953125 248.960938 207.433594 C 248.3125 213.019531 244.890625 214.867188 239.632812 213.03125 C 236.996094 212.132812 234.316406 210.886719 232.171875 209.210938 C 227.125 205.195312 222.421875 200.765625 217.492188 196.597656 C 210.070312 190.320312 203.011719 183.453125 194.992188 178.066406 C 185.519531 171.761719 176.664062 172.71875 168.144531 180.402344 C 161.1875 186.675781 155.222656 194.054688 148.429688 200.527344 C 143.628906 205.128906 138.488281 209.515625 132.910156 213.035156 C 128.011719 216.132812 123.929688 213.804688 123.398438 208.082031 C 122.941406 203.234375 123.371094 198.242188 123.773438 193.355469 C 124.535156 184.191406 129.679688 176.601562 133.097656 168.382812 C 136.695312 159.699219 140.527344 151.089844 143.414062 142.195312 C 145.933594 134.40625 142.117188 124.941406 136.285156 121.570312 C 130.296875 118.117188 122.226562 119.898438 115.726562 126.125 C 110.039062 131.597656 107.722656 138.710938 105.980469 146.109375 C 101.75 164.027344 101.113281 182.214844 101.816406 200.46875 C 102.207031 210.566406 102.804688 220.726562 106.589844 230.296875 C 110.84375 241 119.332031 245.3125 130.339844 242.09375 C 133.15625 241.28125 135.816406 240.015625 138.488281 238.828125 C 147.933594 234.554688 154.796875 227 161.960938 219.90625 C 168.230469 213.71875 174.324219 207.257812 182.335938 203.21875 C 187.925781 200.402344 193.417969 200.355469 198.085938 204.664062 C 205.136719 211.195312 211.90625 218.050781 218.695312 224.835938 C 224.949219 231.09375 231.425781 237.089844 239.777344 240.511719 C 253.238281 246.023438 265.960938 237.683594 265.835938 223.136719 Z M 265.835938 223.136719 " fill-opacity="1" fill-rule="nonzero"/></g></g></g></g><g clip-path="url(#da13794a8b)"><g clip-path="url(#c5fd4b986a)"><g clip-path="url(#57ecca024d)"><g clip-path="url(#0f9e77181c)"><path fill="#000000" d="M 182.3125 141.488281 C 191.519531 144.394531 201.753906 138.957031 204.554688 129.742188 C 207.289062 120.617188 201.949219 110.582031 192.859375 107.785156 C 183.601562 104.933594 173.792969 110.058594 170.890625 119.242188 C 167.886719 128.765625 172.90625 138.519531 182.3125 141.488281 Z M 182.3125 141.488281 " fill-opacity="1" fill-rule="nonzero"/></g></g></g></g><g transform="matrix(1, 0, 0, 1, 89, 238)"><g clip-path="url(#7c079b4050)"><g fill="#000000" fill-opacity="1"><g transform="translate(0.596594, 30.803953)"><g><path d="M 10.15625 0.636719 C 14.960938 0.636719 18.179688 -1.941406 18.511719 -6.46875 L 14.625 -6.46875 C 14.320312 -4.578125 13.042969 -2.914062 10.40625 -2.914062 C 6.964844 -2.914062 5.078125 -5.71875 5.078125 -9.878906 C 5.078125 -13.90625 6.964844 -16.652344 10.40625 -16.652344 C 12.851562 -16.652344 14.292969 -15.292969 14.625 -13.210938 L 18.539062 -13.210938 C 18.179688 -17.539062 15.042969 -20.207031 10.214844 -20.207031 C 4.941406 -20.207031 0.972656 -16.265625 0.972656 -9.878906 C 0.972656 -3.46875 4.886719 0.636719 10.15625 0.636719 Z M 10.15625 0.636719 "/></g></g></g><g fill="#000000" fill-opacity="1"><g transform="translate(19.826085, 30.803953)"><g><path d="M 19.261719 0 L 12.433594 -19.761719 L 7.6875 -19.761719 L 0.695312 0 L 5.050781 0 L 6.382812 -4.109375 L 13.542969 -4.109375 L 14.875 0 Z M 8.296875 -9.9375 L 9.992188 -15.625 L 11.65625 -9.9375 L 12.460938 -7.492188 L 7.492188 -7.492188 Z M 8.296875 -9.9375 "/></g></g></g><g fill="#000000" fill-opacity="1"><g transform="translate(39.499485, 30.803953)"><g><path d="M 12.351562 -8.160156 L 11.460938 -4.21875 L 10.65625 -8.160156 L 7.578125 -19.761719 L 1.804688 -19.761719 L 1.804688 0 L 5.605469 0 L 5.605469 -7.410156 L 5.132812 -17.097656 L 6.496094 -11.296875 L 9.4375 0 L 13.628906 0 L 16.515625 -11.101562 L 17.875 -17.070312 L 17.402344 -7.410156 L 17.402344 0 L 21.230469 0 L 21.230469 -19.761719 L 15.375 -19.761719 Z M 12.351562 -8.160156 "/></g></g></g><g fill="#000000" fill-opacity="1"><g transform="translate(62.530477, 30.803953)"><g><path d="M 9.660156 -19.761719 L 1.804688 -19.761719 L 1.804688 0 L 5.910156 0 L 5.910156 -6.882812 L 9.296875 -6.882812 C 14.042969 -6.882812 16.542969 -9.382812 16.542969 -13.40625 C 16.542969 -17.375 13.933594 -19.761719 9.660156 -19.761719 Z M 5.910156 -10.351562 L 5.910156 -16.292969 L 9.351562 -16.292969 C 11.242188 -16.292969 12.574219 -15.292969 12.574219 -13.351562 C 12.574219 -11.460938 11.351562 -10.351562 8.9375 -10.351562 Z M 5.910156 -10.351562 "/></g></g></g><g fill="#000000" fill-opacity="1"><g transform="translate(79.484617, 30.803953)"><g><path d="M 9.464844 0.636719 C 14.292969 0.636719 17.152344 -1.75 17.152344 -6.078125 L 17.152344 -19.761719 L 13.042969 -19.761719 L 13.042969 -6.023438 C 13.042969 -3.914062 11.90625 -2.914062 9.492188 -2.914062 C 7.078125 -2.914062 5.910156 -3.914062 5.910156 -6.023438 L 5.910156 -19.761719 L 1.804688 -19.761719 L 1.804688 -6.078125 C 1.804688 -1.75 4.636719 0.636719 9.464844 0.636719 Z M 9.464844 0.636719 "/></g></g></g><g fill="#000000" fill-opacity="1"><g transform="translate(98.436625, 30.803953)"><g><path d="M 9.464844 0.636719 C 14.347656 0.636719 17.320312 -1.75 17.320312 -5.578125 C 17.320312 -8.882812 15.015625 -10.519531 11.933594 -11.269531 L 7.992188 -12.238281 C 6.46875 -12.628906 5.691406 -13.378906 5.691406 -14.460938 C 5.691406 -15.792969 6.855469 -16.847656 8.964844 -16.847656 C 11.128906 -16.847656 12.738281 -15.710938 12.988281 -13.710938 L 16.984375 -13.710938 C 16.734375 -17.597656 13.710938 -20.207031 8.9375 -20.207031 C 3.859375 -20.207031 1.554688 -17.179688 1.554688 -14.015625 C 1.554688 -11.242188 3.332031 -9.296875 6.410156 -8.519531 L 10.046875 -7.605469 C 11.933594 -7.132812 13.074219 -6.605469 13.074219 -5.191406 C 13.074219 -3.636719 11.683594 -2.71875 9.4375 -2.71875 C 6.828125 -2.71875 5.21875 -3.941406 5.105469 -6.132812 L 1.082031 -6.132812 C 1.195312 -1.859375 4.441406 0.636719 9.464844 0.636719 Z M 9.464844 0.636719 "/></g></g></g><g fill="#000000" fill-opacity="1"><g transform="translate(116.83367, 30.803953)"><g><path d="M 8.242188 -19.761719 L 1.804688 -19.761719 L 1.804688 0 L 8.796875 0 C 15.515625 0 18.457031 -4.109375 18.457031 -10.019531 C 18.457031 -15.929688 15.652344 -19.761719 8.242188 -19.761719 Z M 5.910156 -3.46875 L 5.910156 -16.429688 L 7.855469 -16.429688 C 12.90625 -16.429688 14.347656 -14.15625 14.347656 -9.878906 C 14.347656 -5.578125 12.765625 -3.46875 8.410156 -3.46875 Z M 5.910156 -3.46875 "/></g></g></g><g fill="#000000" fill-opacity="1"><g transform="translate(136.174154, 30.803953)"><g><path d="M 10.296875 0.636719 C 15.570312 0.636719 19.734375 -3.496094 19.734375 -9.910156 C 19.734375 -16.292969 15.570312 -20.234375 10.296875 -20.234375 C 5.023438 -20.234375 0.972656 -16.292969 0.972656 -9.910156 C 0.972656 -3.46875 5.023438 0.636719 10.296875 0.636719 Z M 10.296875 -2.914062 C 7.050781 -2.914062 5.078125 -5.71875 5.078125 -9.910156 C 5.078125 -13.933594 7.050781 -16.679688 10.296875 -16.679688 C 13.542969 -16.679688 15.625 -13.960938 15.625 -9.910156 C 15.625 -5.71875 13.542969 -2.914062 10.296875 -2.914062 Z M 10.296875 -2.914062 "/></g></g></g><g fill="#000000" fill-opacity="1"><g transform="translate(156.874299, 30.803953)"><g><path d="M 10.296875 0.636719 C 15.570312 0.636719 19.734375 -3.496094 19.734375 -9.910156 C 19.734375 -16.292969 15.570312 -20.234375 10.296875 -20.234375 C 5.023438 -20.234375 0.972656 -16.292969 0.972656 -9.910156 C 0.972656 -3.46875 5.023438 0.636719 10.296875 0.636719 Z M 10.296875 -2.914062 C 7.050781 -2.914062 5.078125 -5.71875 5.078125 -9.910156 C 5.078125 -13.933594 7.050781 -16.679688 10.296875 -16.679688 C 13.542969 -16.679688 15.625 -13.960938 15.625 -9.910156 C 15.625 -5.71875 13.542969 -2.914062 10.296875 -2.914062 Z M 10.296875 -2.914062 "/></g></g></g><g fill="#000000" fill-opacity="1"><g transform="translate(177.574444, 30.803953)"><g><path d="M 13.488281 -9.492188 C 16.015625 -10.15625 17.261719 -11.796875 17.261719 -14.320312 C 17.261719 -17.125 15.738281 -19.761719 11.019531 -19.761719 L 1.804688 -19.761719 L 1.804688 0 L 5.910156 0 L 5.910156 -7.660156 L 9.546875 -7.660156 C 11.683594 -7.660156 12.378906 -6.773438 12.546875 -5.078125 L 13.015625 0 L 17.234375 0 L 16.429688 -6.273438 C 16.265625 -7.578125 15.792969 -9.019531 13.488281 -9.492188 Z M 5.910156 -16.320312 L 10.40625 -16.320312 C 12.433594 -16.320312 13.238281 -15.210938 13.238281 -13.765625 C 13.238281 -12.238281 12.324219 -10.992188 9.851562 -10.992188 L 5.910156 -10.992188 Z M 5.910156 -16.320312 "/></g></g></g></g></g><g transform="matrix(1, 0, 0, 1, 149, 273)"><g clip-path="url(#c0b9fb7636)"><g fill="#000000" fill-opacity="1"><g transform="translate(1.100915, 9.019169)"><g><path d="M 3.070312 0.191406 C 4.523438 0.191406 5.496094 -0.585938 5.597656 -1.957031 L 4.421875 -1.957031 C 4.332031 -1.386719 3.945312 -0.882812 3.148438 -0.882812 C 2.105469 -0.882812 1.535156 -1.730469 1.535156 -2.988281 C 1.535156 -4.207031 2.105469 -5.035156 3.148438 -5.035156 C 3.886719 -5.035156 4.324219 -4.625 4.421875 -3.996094 L 5.605469 -3.996094 C 5.496094 -5.304688 4.550781 -6.109375 3.089844 -6.109375 C 1.492188 -6.109375 0.292969 -4.917969 0.292969 -2.988281 C 0.292969 -1.050781 1.476562 0.191406 3.070312 0.191406 Z M 3.070312 0.191406 "/></g></g></g><g fill="#000000" fill-opacity="1"><g transform="translate(12.566888, 9.019169)"><g><path d="M 3.113281 0.191406 C 4.707031 0.191406 5.96875 -1.058594 5.96875 -2.996094 C 5.96875 -4.925781 4.707031 -6.117188 3.113281 -6.117188 C 1.519531 -6.117188 0.292969 -4.925781 0.292969 -2.996094 C 0.292969 -1.050781 1.519531 0.191406 3.113281 0.191406 Z M 3.113281 -0.882812 C 2.132812 -0.882812 1.535156 -1.730469 1.535156 -2.996094 C 1.535156 -4.214844 2.132812 -5.042969 3.113281 -5.042969 C 4.097656 -5.042969 4.726562 -4.222656 4.726562 -2.996094 C 4.726562 -1.730469 4.097656 -0.882812 3.113281 -0.882812 Z M 3.113281 -0.882812 "/></g></g></g><g fill="#000000" fill-opacity="1"><g transform="translate(24.477733, 9.019169)"><g><path d="M 3.734375 -2.46875 L 3.464844 -1.277344 L 3.222656 -2.46875 L 2.292969 -5.976562 L 0.546875 -5.976562 L 0.546875 0 L 1.695312 0 L 1.695312 -2.242188 L 1.554688 -5.171875 L 1.964844 -3.417969 L 2.855469 0 L 4.121094 0 L 4.996094 -3.359375 L 5.40625 -5.164062 L 5.261719 -2.242188 L 5.261719 0 L 6.421875 0 L 6.421875 -5.976562 L 4.648438 -5.976562 Z M 3.734375 -2.46875 "/></g></g></g><g fill="#000000" fill-opacity="1"><g transform="translate(37.093667, 9.019169)"><g><path d="M 2.921875 -5.976562 L 0.546875 -5.976562 L 0.546875 0 L 1.789062 0 L 1.789062 -2.082031 L 2.8125 -2.082031 C 4.246094 -2.082031 5.003906 -2.835938 5.003906 -4.054688 C 5.003906 -5.253906 4.214844 -5.976562 2.921875 -5.976562 Z M 1.789062 -3.132812 L 1.789062 -4.925781 L 2.828125 -4.925781 C 3.398438 -4.925781 3.800781 -4.625 3.800781 -4.039062 C 3.800781 -3.464844 3.433594 -3.132812 2.703125 -3.132812 Z M 1.789062 -3.132812 "/></g></g></g><g fill="#000000" fill-opacity="1"><g transform="translate(47.199832, 9.019169)"><g><path d="M 5.824219 0 L 3.761719 -5.976562 L 2.324219 -5.976562 L 0.210938 0 L 1.527344 0 L 1.929688 -1.242188 L 4.097656 -1.242188 L 4.5 0 Z M 2.507812 -3.003906 L 3.023438 -4.726562 L 3.527344 -3.003906 L 3.769531 -2.265625 L 2.265625 -2.265625 Z M 2.507812 -3.003906 "/></g></g></g><g fill="#000000" fill-opacity="1"><g transform="translate(58.800117, 9.019169)"><g><path d="M 4.128906 -3.359375 C 4.128906 -2.9375 4.136719 -2.507812 4.148438 -2.089844 C 3.953125 -2.425781 3.753906 -2.753906 3.542969 -3.089844 L 1.761719 -5.976562 L 0.546875 -5.976562 L 0.546875 0 L 1.789062 0 L 1.789062 -2.617188 C 1.789062 -3.03125 1.789062 -3.457031 1.78125 -3.878906 C 1.988281 -3.527344 2.199219 -3.171875 2.417969 -2.820312 L 4.15625 0 L 5.371094 0 L 5.371094 -5.976562 L 4.128906 -5.976562 Z M 4.128906 -3.359375 "/></g></g></g><g fill="#000000" fill-opacity="1"><g transform="translate(70.366814, 9.019169)"><g><path d="M 3.097656 -4.121094 L 2.753906 -3.289062 L 2.425781 -4.121094 L 1.519531 -5.976562 L 0.152344 -5.976562 L 2.132812 -2.316406 L 2.132812 0 L 3.375 0 L 3.375 -2.316406 L 5.355469 -5.976562 L 4.019531 -5.976562 Z M 3.097656 -4.121094 "/></g></g></g></g></g></svg>