<svg xmlns="http://www.w3.org/2000/svg" xmlns:xlink="http://www.w3.org/1999/xlink" width="500" zoomAndPan="magnify" viewBox="0 0 375 374.999991" height="500" preserveAspectRatio="xMidYMid meet" version="1.0"><defs><g/><clipPath id="d96ebddd8a"><path d="M 109 84.15625 L 265.707031 84.15625 L 265.707031 291 L 109 291 Z M 109 84.15625 " clip-rule="nonzero"/></clipPath><clipPath id="04b74973fb"><path d="M 229 202 L 237.460938 202 L 237.460938 211 L 229 211 Z M 229 202 " clip-rule="nonzero"/></clipPath><clipPath id="823900ed41"><path d="M 231 190 L 237.460938 190 L 237.460938 199 L 231 199 Z M 231 190 " clip-rule="nonzero"/></clipPath><clipPath id="c4b39ee417"><path d="M 172 169.25 L 232 169.25 L 232 252.5 L 172 252.5 Z M 172 169.25 " clip-rule="nonzero"/></clipPath><clipPath id="375ae37517"><path d="M 137.710938 202 L 146 202 L 146 211 L 137.710938 211 Z M 137.710938 202 " clip-rule="nonzero"/></clipPath><clipPath id="2b84e383f1"><path d="M 137.710938 190 L 144 190 L 144 199 L 137.710938 199 Z M 137.710938 190 " clip-rule="nonzero"/></clipPath><clipPath id="b78dd2f4b1"><path d="M 143 169.25 L 203 169.25 L 203 252.5 L 143 252.5 Z M 143 169.25 " clip-rule="nonzero"/></clipPath><clipPath id="687e8cbe12"><path d="M 182 101.960938 L 193 101.960938 L 193 113 L 182 113 Z M 182 101.960938 " clip-rule="nonzero"/></clipPath><clipPath id="477edc682b"><path d="M 194 106 L 203 106 L 203 114.710938 L 194 114.710938 Z M 194 106 " clip-rule="nonzero"/></clipPath><clipPath id="da9ee3310d"><path d="M 172.253906 106 L 181 106 L 181 114.710938 L 172.253906 114.710938 Z M 172.253906 106 " clip-rule="nonzero"/></clipPath><clipPath id="df467a6ca8"><path d="M 161.359375 176.761719 L 213.859375 176.761719 L 213.859375 214.261719 L 161.359375 214.261719 Z M 161.359375 176.761719 " clip-rule="nonzero"/></clipPath><clipPath id="cc66409062"><rect x="0" width="128" y="0" height="25"/></clipPath><clipPath id="3ca9b993ad"><rect x="0" width="26" y="0" height="13"/></clipPath></defs><rect x="-37.5" width="450" fill="#ffffff" y="-37.499999" height="449.999989" fill-opacity="1"/><rect x="-37.5" width="450" fill="#ffffff" y="-37.499999" height="449.999989" fill-opacity="1"/><g clip-path="url(#d96ebddd8a)"><path fill="#13325b" d="M 265.628906 138.121094 C 265.542969 131.292969 265.273438 125.660156 265.007812 121.804688 C 264.964844 120.828125 264.121094 120.027344 263.148438 120.027344 C 258.046875 119.894531 253.390625 117.855469 249.84375 114.621094 C 246.296875 111.339844 243.859375 106.859375 243.148438 101.804688 L 243.105469 101.625 C 242.882812 100.695312 242.75 99.675781 242.703125 98.613281 C 242.617188 97.589844 241.773438 96.792969 240.710938 96.835938 C 239.777344 96.882812 238.800781 96.925781 237.914062 96.925781 C 235.832031 96.925781 232.816406 96.21875 229.269531 95.019531 C 223.949219 93.289062 217.429688 90.585938 210.289062 88.324219 C 203.152344 86.019531 195.390625 84.15625 187.496094 84.15625 C 176.988281 84.15625 166.65625 87.4375 157.789062 90.628906 C 153.351562 92.226562 149.273438 93.824219 145.726562 94.976562 C 142.179688 96.128906 139.164062 96.882812 137.078125 96.882812 C 136.148438 96.882812 135.214844 96.835938 134.285156 96.792969 C 133.265625 96.75 132.378906 97.546875 132.289062 98.566406 C 132.203125 99.632812 132.113281 100.652344 131.890625 101.582031 L 131.847656 101.761719 C 131.136719 106.816406 128.699219 111.339844 125.152344 114.574219 C 121.601562 117.855469 116.949219 119.851562 111.847656 119.984375 C 110.871094 120.027344 110.074219 120.78125 109.984375 121.757812 C 109.71875 125.617188 109.453125 131.246094 109.363281 138.078125 C 109.230469 147.257812 109.011719 156.613281 109.011719 165.925781 C 109.011719 186.234375 110.03125 206.320312 115.527344 224.058594 C 118.277344 232.925781 122.136719 241.175781 127.589844 248.535156 C 133 255.898438 140.003906 262.328125 148.917969 267.46875 C 163.464844 275.894531 172.863281 281.617188 178.585938 285.25 C 181.464844 287.070312 183.417969 288.355469 184.660156 289.199219 C 185.28125 289.597656 185.722656 289.90625 185.988281 290.085938 C 186.121094 290.175781 186.210938 290.261719 186.300781 290.308594 L 186.390625 290.351562 C 187.054688 290.839844 187.984375 290.839844 188.648438 290.351562 C 189.09375 290.039062 197.875 283.789062 226.074219 267.46875 C 234.988281 262.328125 241.996094 255.898438 247.40625 248.535156 C 255.5625 237.496094 260.175781 224.414062 262.792969 210.3125 C 265.410156 196.210938 265.984375 181.089844 265.984375 165.878906 C 265.984375 156.613281 265.761719 147.257812 265.628906 138.121094 Z M 255.832031 222.90625 C 253.167969 231.464844 249.488281 239.3125 244.34375 246.273438 C 239.203125 253.234375 232.636719 259.265625 224.167969 264.144531 C 200.710938 277.714844 190.601562 284.363281 187.496094 286.449219 C 184.394531 284.320312 174.28125 277.667969 150.824219 264.144531 C 142.355469 259.222656 135.792969 253.191406 130.648438 246.273438 C 122.933594 235.855469 118.5 223.347656 115.972656 209.648438 C 113.445312 195.945312 112.867188 181.046875 112.867188 165.925781 C 112.867188 156.699219 113.089844 147.34375 113.222656 138.164062 C 113.3125 132.3125 113.53125 127.390625 113.753906 123.710938 C 119.074219 123.175781 123.910156 120.871094 127.722656 117.414062 C 131.890625 113.554688 134.773438 108.324219 135.617188 102.335938 C 135.75 101.804688 135.835938 101.226562 135.925781 100.652344 C 136.324219 100.652344 136.679688 100.652344 137.078125 100.652344 C 139.960938 100.652344 143.242188 99.765625 146.921875 98.566406 C 152.464844 96.75 158.941406 94.089844 165.859375 91.871094 C 172.820312 89.652344 180.226562 87.925781 187.496094 87.925781 C 197.207031 87.925781 207.140625 90.984375 215.921875 94.175781 C 220.3125 95.773438 224.390625 97.324219 228.117188 98.566406 C 231.796875 99.765625 235.078125 100.652344 237.960938 100.652344 C 238.359375 100.652344 238.757812 100.652344 239.113281 100.652344 C 239.203125 101.226562 239.289062 101.761719 239.421875 102.335938 C 240.265625 108.277344 243.148438 113.554688 247.316406 117.414062 C 251.085938 120.871094 255.964844 123.175781 261.328125 123.710938 C 261.550781 127.390625 261.773438 132.3125 261.859375 138.164062 C 261.992188 147.34375 262.214844 156.65625 262.214844 165.925781 C 262.171875 186.054688 261.105469 205.832031 255.832031 222.90625 Z M 255.832031 222.90625 " fill-opacity="1" fill-rule="nonzero"/></g><path fill="#9f7944" d="M 205.136719 237.113281 C 206.28125 234.09375 204.230469 231.496094 204.230469 231.496094 C 204.230469 231.496094 201.152344 233.515625 199.929688 236.328125 C 198.714844 239.140625 199.945312 242.011719 199.945312 242.011719 C 199.945312 242.011719 203.996094 240.136719 205.136719 237.113281 " fill-opacity="1" fill-rule="nonzero"/><path fill="#9f7944" d="M 220.167969 223.25 C 220.035156 220.234375 217.359375 218.742188 217.359375 218.742188 C 217.359375 218.742188 215.429688 221.621094 215.429688 224.5 C 215.4375 227.378906 217.578125 229.386719 217.578125 229.386719 C 217.578125 229.386719 220.296875 226.265625 220.167969 223.25 " fill-opacity="1" fill-rule="nonzero"/><path fill="#9f7944" d="M 207.816406 241.71875 C 204.46875 241.472656 200.535156 243.421875 200.535156 243.421875 C 200.535156 243.421875 201.589844 246.535156 205.019531 247.03125 C 208.453125 247.527344 212.8125 244.734375 212.8125 244.734375 C 212.8125 244.734375 211.167969 241.96875 207.816406 241.71875 " fill-opacity="1" fill-rule="nonzero"/><path fill="#9f7944" d="M 216.625 234.707031 C 213.421875 235.128906 210.125 237.742188 210.125 237.742188 C 210.125 237.742188 211.746094 240.492188 215.066406 240.277344 C 218.390625 240.0625 221.933594 236.558594 221.933594 236.558594 C 221.933594 236.558594 219.828125 234.285156 216.625 234.707031 " fill-opacity="1" fill-rule="nonzero"/><path fill="#9f7944" d="M 223.859375 225.953125 C 220.925781 227 218.351562 230.121094 218.351562 230.121094 C 218.351562 230.121094 220.4375 232.371094 223.515625 231.488281 C 226.597656 230.601562 229.226562 226.59375 229.226562 226.59375 C 229.226562 226.59375 226.792969 224.90625 223.859375 225.953125 " fill-opacity="1" fill-rule="nonzero"/><path fill="#9f7944" d="M 229.1875 215.78125 C 226.640625 217.375 224.851562 220.832031 224.851562 220.832031 C 224.851562 220.832031 227.265625 222.496094 229.976562 221.011719 C 232.691406 219.527344 234.351562 215.242188 234.351562 215.242188 C 234.351562 215.242188 231.734375 214.191406 229.1875 215.78125 " fill-opacity="1" fill-rule="nonzero"/><g clip-path="url(#04b74973fb)"><path fill="#9f7944" d="M 232.316406 204.605469 C 230.261719 206.640625 229.285156 210.25 229.285156 210.25 C 229.285156 210.25 231.871094 211.269531 234.101562 209.292969 C 236.332031 207.320312 237.019531 202.984375 237.019531 202.984375 C 237.019531 202.984375 234.375 202.570312 232.316406 204.605469 " fill-opacity="1" fill-rule="nonzero"/></g><g clip-path="url(#823900ed41)"><path fill="#9f7944" d="M 233.019531 192.882812 C 231.53125 195.230469 231.363281 198.808594 231.363281 198.808594 C 231.363281 198.808594 233.972656 199.179688 235.628906 196.84375 C 237.28125 194.511719 237.035156 190.335938 237.035156 190.335938 C 237.035156 190.335938 234.507812 190.535156 233.019531 192.882812 " fill-opacity="1" fill-rule="nonzero"/></g><path fill="#9f7944" d="M 234.375 184.234375 C 235.402344 181.691406 234.300781 177.855469 234.300781 177.855469 C 234.300781 177.855469 232.03125 178.59375 231.15625 181.113281 C 230.28125 183.636719 230.878906 187.019531 230.878906 187.019531 C 230.878906 187.019531 233.347656 186.777344 234.375 184.234375 " fill-opacity="1" fill-rule="nonzero"/><g clip-path="url(#c4b39ee417)"><path fill="#9f7944" d="M 218.804688 229.480469 C 223.292969 222.945312 226.527344 216.53125 228.515625 209.988281 C 228.660156 210.046875 228.746094 210.074219 228.746094 210.074219 C 228.746094 210.074219 229.0625 209.011719 229.171875 207.640625 C 229.921875 204.707031 230.433594 201.746094 230.6875 198.730469 C 230.914062 198.769531 231.058594 198.78125 231.058594 198.78125 C 231.058594 198.78125 231.160156 197.367188 230.851562 195.789062 C 230.945312 192.9375 230.816406 190.03125 230.46875 187.054688 C 230.695312 187.046875 230.828125 187.027344 230.828125 187.027344 C 230.828125 187.027344 230.648438 185.839844 230.121094 184.527344 C 229.863281 182.859375 229.539062 181.171875 229.148438 179.453125 C 229.191406 179.488281 229.21875 179.511719 229.21875 179.511719 C 229.21875 179.511719 230.203125 176.527344 228.988281 173.589844 C 227.777344 170.65625 224.996094 169.253906 224.996094 169.253906 C 224.996094 169.253906 224.660156 172.277344 225.785156 175.015625 C 226.785156 177.449219 228.714844 179.101562 229.132812 179.441406 C 229.472656 181.035156 229.757812 182.621094 229.988281 184.199219 C 229.613281 183.351562 229.09375 182.484375 228.375 181.878906 C 226.453125 180.253906 224.128906 181.105469 224.128906 181.105469 C 224.128906 181.105469 224.894531 184.121094 226.679688 185.761719 C 227.976562 186.949219 229.566406 187.082031 230.347656 187.0625 C 230.628906 189.757812 230.742188 192.425781 230.683594 195.074219 C 230.480469 194.335938 230.171875 193.601562 229.710938 193.003906 C 228.089844 190.917969 225.480469 191.25 225.480469 191.25 C 225.480469 191.25 225.582031 194.4375 227.058594 196.511719 C 228.097656 197.976562 229.65625 198.503906 230.488281 198.6875 C 230.257812 201.394531 229.835938 204.066406 229.207031 206.707031 C 229.199219 205.757812 229.0625 204.753906 228.644531 203.890625 C 227.4375 201.398438 224.664062 201.148438 224.664062 201.148438 C 224.664062 201.148438 224.082031 204.375 225.140625 206.816406 C 225.9375 208.648438 227.570312 209.566406 228.335938 209.910156 C 227.503906 212.644531 226.433594 215.339844 225.125 217.984375 C 225.472656 216.816406 225.699219 215.390625 225.378906 214.109375 C 224.671875 211.296875 221.875 210.425781 221.875 210.425781 C 221.875 210.425781 220.605469 213.546875 221.167969 216.261719 C 221.632812 218.488281 223.335938 219.851562 223.9375 220.273438 C 222.316406 223.199219 220.394531 226.066406 218.140625 228.867188 C 215.597656 231.511719 213.019531 233.804688 210.285156 235.890625 C 211.339844 234.902344 212.984375 233.070312 213.3125 231.003906 C 213.808594 227.914062 211.378906 225.832031 211.378906 225.832031 C 211.378906 225.832031 208.84375 228.339844 208.25 231.253906 C 207.699219 233.914062 209.097656 236.222656 209.34375 236.605469 C 207.511719 237.945312 205.605469 239.199219 203.574219 240.398438 C 200.960938 241.789062 198.320312 242.90625 195.746094 243.773438 C 193.140625 244.664062 190.636719 245.46875 188.296875 246.171875 C 183.621094 247.574219 179.546875 248.605469 176.71875 249.550781 C 175.300781 250.015625 174.214844 250.46875 173.511719 250.820312 C 173.160156 250.996094 172.894531 251.136719 172.726562 251.242188 C 172.558594 251.347656 172.46875 251.402344 172.46875 251.402344 C 173.300781 251.855469 173.722656 252.082031 174.574219 252.519531 C 174.574219 252.519531 174.636719 252.476562 174.753906 252.398438 C 174.867188 252.316406 175.058594 252.203125 175.316406 252.054688 C 175.839844 251.769531 176.695312 251.363281 177.9375 250.921875 C 180.394531 250.015625 184.296875 248.949219 188.871094 247.5 C 191.152344 246.773438 193.601562 245.957031 196.175781 245.039062 C 198.792969 244.117188 201.472656 242.9375 204.121094 241.480469 C 209.652344 238.105469 214.277344 234.339844 218.804688 229.480469 " fill-opacity="1" fill-rule="nonzero"/></g><path fill="#9f7944" d="M 169.855469 237.113281 C 168.714844 234.09375 170.761719 231.496094 170.761719 231.496094 C 170.761719 231.496094 173.84375 233.515625 175.0625 236.328125 C 176.28125 239.140625 175.050781 242.011719 175.050781 242.011719 C 175.050781 242.011719 171 240.136719 169.855469 237.113281 " fill-opacity="1" fill-rule="nonzero"/><path fill="#9f7944" d="M 154.828125 223.25 C 154.960938 220.234375 157.636719 218.742188 157.636719 218.742188 C 157.636719 218.742188 159.566406 221.621094 159.5625 224.5 C 159.558594 227.378906 157.417969 229.386719 157.417969 229.386719 C 157.417969 229.386719 154.699219 226.265625 154.828125 223.25 " fill-opacity="1" fill-rule="nonzero"/><path fill="#9f7944" d="M 167.175781 241.71875 C 170.527344 241.472656 174.460938 243.421875 174.460938 243.421875 C 174.460938 243.421875 173.40625 246.535156 169.972656 247.03125 C 166.542969 247.527344 162.179688 244.734375 162.179688 244.734375 C 162.179688 244.734375 163.828125 241.96875 167.175781 241.71875 " fill-opacity="1" fill-rule="nonzero"/><path fill="#9f7944" d="M 158.371094 234.707031 C 161.574219 235.128906 164.871094 237.742188 164.871094 237.742188 C 164.871094 237.742188 163.25 240.492188 159.925781 240.277344 C 156.601562 240.0625 153.0625 236.558594 153.0625 236.558594 C 153.0625 236.558594 155.164062 234.285156 158.371094 234.707031 " fill-opacity="1" fill-rule="nonzero"/><path fill="#9f7944" d="M 151.136719 225.953125 C 154.070312 227 156.644531 230.121094 156.644531 230.121094 C 156.644531 230.121094 154.558594 232.371094 151.476562 231.488281 C 148.394531 230.601562 145.765625 226.59375 145.765625 226.59375 C 145.765625 226.59375 148.203125 224.90625 151.136719 225.953125 " fill-opacity="1" fill-rule="nonzero"/><path fill="#9f7944" d="M 145.804688 215.78125 C 148.351562 217.375 150.144531 220.832031 150.144531 220.832031 C 150.144531 220.832031 147.730469 222.496094 145.019531 221.011719 C 142.304688 219.527344 140.644531 215.242188 140.644531 215.242188 C 140.644531 215.242188 143.261719 214.191406 145.804688 215.78125 " fill-opacity="1" fill-rule="nonzero"/><g clip-path="url(#375ae37517)"><path fill="#9f7944" d="M 142.679688 204.605469 C 144.734375 206.640625 145.710938 210.25 145.710938 210.25 C 145.710938 210.25 143.121094 211.269531 140.890625 209.292969 C 138.660156 207.320312 137.972656 202.984375 137.972656 202.984375 C 137.972656 202.984375 140.621094 202.570312 142.679688 204.605469 " fill-opacity="1" fill-rule="nonzero"/></g><g clip-path="url(#2b84e383f1)"><path fill="#9f7944" d="M 141.972656 192.882812 C 143.464844 195.230469 143.632812 198.808594 143.632812 198.808594 C 143.632812 198.808594 141.023438 199.175781 139.367188 196.84375 C 137.710938 194.511719 137.960938 190.335938 137.960938 190.335938 C 137.960938 190.335938 140.484375 190.535156 141.972656 192.882812 " fill-opacity="1" fill-rule="nonzero"/></g><path fill="#9f7944" d="M 140.621094 184.234375 C 139.59375 181.691406 140.691406 177.855469 140.691406 177.855469 C 140.691406 177.855469 142.960938 178.59375 143.835938 181.113281 C 144.710938 183.632812 144.113281 187.019531 144.113281 187.019531 C 144.113281 187.019531 141.644531 186.777344 140.621094 184.234375 " fill-opacity="1" fill-rule="nonzero"/><g clip-path="url(#b78dd2f4b1)"><path fill="#9f7944" d="M 156.1875 229.476562 C 151.699219 222.945312 148.464844 216.53125 146.480469 209.988281 C 146.332031 210.046875 146.246094 210.074219 146.246094 210.074219 C 146.246094 210.074219 145.929688 209.011719 145.824219 207.640625 C 145.070312 204.707031 144.5625 201.746094 144.304688 198.730469 C 144.078125 198.769531 143.9375 198.78125 143.9375 198.78125 C 143.9375 198.78125 143.832031 197.367188 144.140625 195.789062 C 144.050781 192.9375 144.179688 190.03125 144.523438 187.054688 C 144.296875 187.046875 144.164062 187.027344 144.164062 187.027344 C 144.164062 187.027344 144.34375 185.839844 144.871094 184.527344 C 145.128906 182.859375 145.457031 181.167969 145.847656 179.453125 C 145.804688 179.488281 145.773438 179.511719 145.773438 179.511719 C 145.773438 179.511719 144.792969 176.523438 146.003906 173.589844 C 147.21875 170.65625 150 169.253906 150 169.253906 C 150 169.253906 150.332031 172.277344 149.207031 175.015625 C 148.210938 177.449219 146.28125 179.101562 145.859375 179.441406 C 145.523438 181.035156 145.238281 182.621094 145.007812 184.199219 C 145.378906 183.347656 145.902344 182.480469 146.617188 181.878906 C 148.542969 180.253906 150.867188 181.105469 150.867188 181.105469 C 150.867188 181.105469 150.101562 184.117188 148.3125 185.761719 C 147.015625 186.949219 145.425781 187.082031 144.644531 187.058594 C 144.363281 189.757812 144.25 192.425781 144.308594 195.074219 C 144.515625 194.335938 144.820312 193.601562 145.285156 193.003906 C 146.902344 190.917969 149.515625 191.25 149.515625 191.25 C 149.515625 191.25 149.410156 194.4375 147.9375 196.511719 C 146.898438 197.976562 145.335938 198.5 144.507812 198.6875 C 144.738281 201.394531 145.160156 204.066406 145.789062 206.707031 C 145.796875 205.757812 145.933594 204.753906 146.351562 203.890625 C 147.558594 201.398438 150.328125 201.148438 150.328125 201.148438 C 150.328125 201.148438 150.914062 204.375 149.855469 206.816406 C 149.058594 208.648438 147.421875 209.566406 146.660156 209.910156 C 147.492188 212.644531 148.558594 215.339844 149.867188 217.984375 C 149.523438 216.816406 149.292969 215.390625 149.617188 214.105469 C 150.324219 211.296875 153.117188 210.421875 153.117188 210.421875 C 153.117188 210.421875 154.386719 213.546875 153.824219 216.261719 C 153.363281 218.484375 151.660156 219.851562 151.058594 220.273438 C 152.675781 223.199219 154.601562 226.0625 156.851562 228.867188 C 159.398438 231.511719 161.972656 233.804688 164.710938 235.890625 C 163.65625 234.902344 162.011719 233.070312 161.683594 231 C 161.1875 227.914062 163.613281 225.832031 163.613281 225.832031 C 163.613281 225.832031 166.152344 228.339844 166.746094 231.253906 C 167.292969 233.914062 165.898438 236.222656 165.648438 236.605469 C 167.480469 237.945312 169.390625 239.199219 171.421875 240.398438 C 174.035156 241.789062 176.675781 242.90625 179.246094 243.773438 C 181.855469 244.664062 184.359375 245.46875 186.695312 246.171875 C 191.375 247.574219 195.449219 248.605469 198.277344 249.550781 C 199.691406 250.015625 200.777344 250.46875 201.484375 250.820312 C 201.832031 250.996094 202.097656 251.136719 202.265625 251.242188 C 202.4375 251.347656 202.523438 251.402344 202.523438 251.402344 C 201.695312 251.855469 201.273438 252.082031 200.417969 252.515625 C 200.417969 252.515625 200.359375 252.476562 200.238281 252.398438 C 200.128906 252.316406 199.9375 252.203125 199.679688 252.054688 C 199.15625 251.769531 198.296875 251.363281 197.054688 250.921875 C 194.597656 250.015625 190.695312 248.949219 186.125 247.5 C 183.839844 246.773438 181.394531 245.957031 178.820312 245.039062 C 176.199219 244.117188 173.519531 242.9375 170.871094 241.480469 C 165.34375 238.105469 160.71875 234.339844 156.1875 229.476562 " fill-opacity="1" fill-rule="nonzero"/></g><g clip-path="url(#687e8cbe12)"><path fill="#9f7944" d="M 187.496094 101.960938 L 189.171875 105.359375 L 192.921875 105.902344 L 190.207031 108.550781 L 190.847656 112.285156 L 187.496094 110.519531 L 184.140625 112.285156 L 184.78125 108.550781 L 182.066406 105.902344 L 185.816406 105.359375 Z M 187.496094 101.960938 " fill-opacity="1" fill-rule="nonzero"/></g><g clip-path="url(#477edc682b)"><path fill="#9f7944" d="M 198.964844 106.472656 L 199.867188 109.265625 L 202.679688 110.101562 L 200.304688 111.824219 L 200.375 114.757812 L 198.003906 113.03125 L 195.234375 114.003906 L 196.144531 111.214844 L 194.363281 108.882812 L 197.300781 108.886719 Z M 198.964844 106.472656 " fill-opacity="1" fill-rule="nonzero"/></g><g clip-path="url(#da9ee3310d)"><path fill="#9f7944" d="M 176.023438 106.472656 L 175.121094 109.265625 L 172.308594 110.101562 L 174.683594 111.824219 L 174.613281 114.757812 L 176.984375 113.03125 L 179.753906 114.003906 L 178.84375 111.214844 L 180.625 108.882812 L 177.6875 108.886719 Z M 176.023438 106.472656 " fill-opacity="1" fill-rule="nonzero"/></g><g clip-path="url(#df467a6ca8)"><path fill="#13325b" d="M 212.132812 182.65625 L 212.132812 180.660156 C 212.132812 180.46875 211.988281 180.324219 211.796875 180.324219 L 210.011719 180.324219 L 210.011719 178.839844 C 210.011719 178.652344 209.863281 178.503906 209.675781 178.503906 L 207.960938 178.503906 L 207.960938 177.125 C 207.960938 177.03125 207.917969 176.9375 207.847656 176.875 C 207.773438 176.8125 207.679688 176.78125 207.574219 176.789062 C 198.738281 177.761719 189.757812 182.855469 188.816406 183.398438 L 186.183594 183.398438 C 185.230469 182.855469 176.25 177.761719 167.414062 176.789062 C 167.320312 176.78125 167.226562 176.8125 167.152344 176.875 C 167.082031 176.9375 167.039062 177.03125 167.039062 177.125 L 167.039062 178.503906 L 165.335938 178.503906 C 165.144531 178.503906 165 178.652344 165 178.839844 L 165 180.3125 L 163.210938 180.3125 C 163.023438 180.3125 162.878906 180.460938 162.878906 180.648438 L 162.878906 182.65625 L 161.695312 182.65625 C 161.507812 182.65625 161.359375 182.800781 161.359375 182.988281 L 161.359375 212.734375 C 161.359375 212.734375 172.820312 213.039062 186.089844 214.480469 L 188.910156 214.480469 C 202.191406 213.050781 213.636719 212.734375 213.636719 212.734375 L 213.636719 182.988281 C 213.636719 182.800781 213.492188 182.65625 213.304688 182.65625 Z M 211.453125 180.992188 L 211.453125 210.039062 C 211.453125 210.039062 211.453125 210.039062 211.453125 210.050781 C 209.59375 210.089844 200.328125 210.382812 191.902344 212.285156 C 195.855469 210.894531 203.195312 208.625 209.675781 208.375 C 209.855469 208.367188 210 208.21875 210 208.042969 L 210 180.992188 Z M 209.332031 179.175781 L 209.332031 207.71875 C 203.863281 207.988281 197.851562 209.621094 193.742188 210.957031 C 197.328125 209.316406 202.515625 207.339844 207.648438 206.777344 C 207.816406 206.753906 207.949219 206.609375 207.949219 206.441406 L 207.949219 179.175781 Z M 189.246094 183.929688 C 190.511719 183.199219 198.917969 178.535156 207.28125 177.5 L 207.28125 206.136719 C 199.316406 207.101562 191.304688 211.324219 189.246094 212.472656 Z M 186.421875 184.066406 L 188.566406 184.066406 L 188.566406 212.714844 L 186.421875 212.714844 Z M 167.71875 177.5 C 176.070312 178.527344 184.488281 183.199219 185.753906 183.929688 L 185.753906 212.472656 C 183.695312 211.324219 175.683594 207.101562 167.71875 206.136719 Z M 165.667969 179.175781 L 167.050781 179.175781 L 167.050781 206.441406 C 167.050781 206.609375 167.175781 206.753906 167.351562 206.777344 C 172.484375 207.339844 177.671875 209.316406 181.257812 210.957031 C 177.160156 209.628906 171.136719 207.988281 165.667969 207.71875 Z M 163.546875 180.992188 L 165 180.992188 L 165 208.042969 C 165 208.21875 165.144531 208.367188 165.324219 208.375 C 171.804688 208.625 179.15625 210.894531 183.097656 212.285156 C 174.660156 210.371094 165.398438 210.082031 163.546875 210.050781 C 163.546875 210.050781 163.546875 210.050781 163.546875 210.039062 Z M 163.546875 180.992188 " fill-opacity="1" fill-rule="nonzero"/></g><path fill="#13325b" d="M 205.546875 181.808594 C 199.179688 183 193.09375 186.042969 190.761719 187.296875 C 190.59375 187.382812 190.542969 187.589844 190.625 187.746094 C 190.6875 187.863281 190.804688 187.925781 190.917969 187.925781 C 190.972656 187.925781 191.023438 187.914062 191.074219 187.882812 C 193.375 186.640625 199.386719 183.628906 205.660156 182.457031 C 205.839844 182.425781 205.964844 182.246094 205.933594 182.070312 C 205.902344 181.890625 205.722656 181.765625 205.546875 181.808594 Z M 205.546875 181.808594 " fill-opacity="1" fill-rule="nonzero"/><path fill="#13325b" d="M 205.546875 184.726562 C 199.179688 185.917969 193.09375 188.960938 190.761719 190.214844 C 190.59375 190.296875 190.542969 190.507812 190.625 190.664062 C 190.6875 190.78125 190.804688 190.84375 190.917969 190.84375 C 190.972656 190.84375 191.023438 190.832031 191.074219 190.800781 C 193.375 189.554688 199.386719 186.546875 205.660156 185.375 C 205.839844 185.34375 205.964844 185.164062 205.933594 184.988281 C 205.902344 184.808594 205.722656 184.695312 205.546875 184.726562 Z M 205.546875 184.726562 " fill-opacity="1" fill-rule="nonzero"/><path fill="#13325b" d="M 205.546875 187.652344 C 199.179688 188.84375 193.09375 191.886719 190.761719 193.140625 C 190.59375 193.226562 190.542969 193.433594 190.625 193.59375 C 190.6875 193.707031 190.804688 193.769531 190.917969 193.769531 C 190.972656 193.769531 191.023438 193.757812 191.074219 193.726562 C 193.375 192.484375 199.386719 189.472656 205.660156 188.300781 C 205.839844 188.269531 205.964844 188.09375 205.933594 187.914062 C 205.902344 187.738281 205.722656 187.613281 205.546875 187.652344 Z M 205.546875 187.652344 " fill-opacity="1" fill-rule="nonzero"/><path fill="#13325b" d="M 205.546875 190.570312 C 199.179688 191.761719 193.09375 194.804688 190.761719 196.058594 C 190.59375 196.144531 190.542969 196.351562 190.625 196.507812 C 190.6875 196.625 190.804688 196.6875 190.917969 196.6875 C 190.972656 196.6875 191.023438 196.675781 191.074219 196.644531 C 193.375 195.402344 199.386719 192.390625 205.660156 191.21875 C 205.839844 191.1875 205.964844 191.007812 205.933594 190.832031 C 205.902344 190.652344 205.722656 190.539062 205.546875 190.570312 Z M 205.546875 190.570312 " fill-opacity="1" fill-rule="nonzero"/><path fill="#13325b" d="M 205.546875 193.488281 C 199.179688 194.679688 193.09375 197.722656 190.761719 198.976562 C 190.59375 199.058594 190.542969 199.269531 190.625 199.425781 C 190.6875 199.542969 190.804688 199.605469 190.917969 199.605469 C 190.972656 199.605469 191.023438 199.59375 191.074219 199.5625 C 193.375 198.316406 199.386719 195.304688 205.660156 194.136719 C 205.839844 194.105469 205.964844 193.925781 205.933594 193.75 C 205.902344 193.582031 205.722656 193.457031 205.546875 193.488281 Z M 205.546875 193.488281 " fill-opacity="1" fill-rule="nonzero"/><path fill="#13325b" d="M 205.546875 196.414062 C 199.179688 197.605469 193.09375 200.648438 190.761719 201.902344 C 190.59375 201.988281 190.542969 202.195312 190.625 202.355469 C 190.6875 202.46875 190.804688 202.53125 190.917969 202.53125 C 190.972656 202.53125 191.023438 202.519531 191.074219 202.488281 C 193.375 201.246094 199.386719 198.234375 205.660156 197.0625 C 205.839844 197.03125 205.964844 196.855469 205.933594 196.675781 C 205.902344 196.5 205.722656 196.375 205.546875 196.414062 Z M 205.546875 196.414062 " fill-opacity="1" fill-rule="nonzero"/><path fill="#13325b" d="M 205.546875 199.332031 C 199.179688 200.523438 193.09375 203.566406 190.761719 204.820312 C 190.59375 204.90625 190.542969 205.113281 190.625 205.269531 C 190.6875 205.386719 190.804688 205.449219 190.917969 205.449219 C 190.972656 205.449219 191.023438 205.4375 191.074219 205.40625 C 193.375 204.164062 199.386719 201.152344 205.660156 199.980469 C 205.839844 199.949219 205.964844 199.769531 205.933594 199.59375 C 205.902344 199.414062 205.722656 199.300781 205.546875 199.332031 Z M 205.546875 199.332031 " fill-opacity="1" fill-rule="nonzero"/><path fill="#13325b" d="M 205.546875 202.257812 C 199.179688 203.453125 193.09375 206.492188 190.761719 207.75 C 190.59375 207.832031 190.542969 208.042969 190.625 208.199219 C 190.6875 208.3125 190.804688 208.375 190.917969 208.375 C 190.972656 208.375 191.023438 208.367188 191.074219 208.335938 C 193.375 207.089844 199.386719 204.078125 205.660156 202.90625 C 205.839844 202.875 205.964844 202.699219 205.933594 202.519531 C 205.902344 202.34375 205.722656 202.21875 205.546875 202.257812 Z M 205.546875 202.257812 " fill-opacity="1" fill-rule="nonzero"/><path fill="#13325b" d="M 184.238281 187.296875 C 181.917969 186.042969 175.820312 182.988281 169.453125 181.808594 C 169.277344 181.777344 169.097656 181.890625 169.066406 182.082031 C 169.035156 182.257812 169.152344 182.4375 169.339844 182.46875 C 175.613281 183.636719 181.625 186.648438 183.925781 187.894531 C 183.976562 187.925781 184.027344 187.933594 184.082031 187.933594 C 184.195312 187.933594 184.3125 187.871094 184.375 187.757812 C 184.457031 187.589844 184.40625 187.382812 184.238281 187.296875 Z M 184.238281 187.296875 " fill-opacity="1" fill-rule="nonzero"/><path fill="#13325b" d="M 184.238281 190.214844 C 181.917969 188.960938 175.820312 185.90625 169.453125 184.726562 C 169.277344 184.695312 169.097656 184.808594 169.066406 184.996094 C 169.035156 185.175781 169.152344 185.351562 169.339844 185.382812 C 175.613281 186.554688 181.625 189.566406 183.925781 190.8125 C 183.976562 190.84375 184.027344 190.851562 184.082031 190.851562 C 184.195312 190.851562 184.3125 190.789062 184.375 190.675781 C 184.457031 190.507812 184.40625 190.308594 184.238281 190.214844 Z M 184.238281 190.214844 " fill-opacity="1" fill-rule="nonzero"/><path fill="#13325b" d="M 184.238281 193.140625 C 181.917969 191.886719 175.820312 188.835938 169.453125 187.652344 C 169.277344 187.621094 169.097656 187.738281 169.066406 187.925781 C 169.035156 188.101562 169.152344 188.28125 169.339844 188.3125 C 175.613281 189.484375 181.625 192.492188 183.925781 193.738281 C 183.976562 193.769531 184.027344 193.78125 184.082031 193.78125 C 184.195312 193.78125 184.3125 193.71875 184.375 193.601562 C 184.457031 193.433594 184.40625 193.226562 184.238281 193.140625 Z M 184.238281 193.140625 " fill-opacity="1" fill-rule="nonzero"/><path fill="#13325b" d="M 184.238281 196.058594 C 181.917969 194.804688 175.820312 191.75 169.453125 190.570312 C 169.277344 190.539062 169.097656 190.652344 169.066406 190.84375 C 169.035156 191.019531 169.152344 191.199219 169.339844 191.230469 C 175.613281 192.398438 181.625 195.410156 183.925781 196.65625 C 183.976562 196.6875 184.027344 196.695312 184.082031 196.695312 C 184.195312 196.695312 184.3125 196.632812 184.375 196.519531 C 184.457031 196.351562 184.40625 196.152344 184.238281 196.058594 Z M 184.238281 196.058594 " fill-opacity="1" fill-rule="nonzero"/><path fill="#13325b" d="M 184.238281 198.988281 C 181.917969 197.730469 175.820312 194.679688 169.453125 193.496094 C 169.277344 193.464844 169.097656 193.582031 169.066406 193.769531 C 169.035156 193.949219 169.152344 194.125 169.339844 194.15625 C 175.613281 195.328125 181.625 198.339844 183.925781 199.582031 C 183.976562 199.613281 184.027344 199.625 184.082031 199.625 C 184.195312 199.625 184.3125 199.5625 184.375 199.445312 C 184.457031 199.28125 184.40625 199.070312 184.238281 198.988281 Z M 184.238281 198.988281 " fill-opacity="1" fill-rule="nonzero"/><path fill="#13325b" d="M 184.238281 201.902344 C 181.917969 200.648438 175.820312 197.597656 169.453125 196.414062 C 169.277344 196.382812 169.097656 196.5 169.066406 196.6875 C 169.035156 196.863281 169.152344 197.042969 169.339844 197.074219 C 175.613281 198.246094 181.625 201.253906 183.925781 202.5 C 183.976562 202.53125 184.027344 202.542969 184.082031 202.542969 C 184.195312 202.542969 184.3125 202.480469 184.375 202.363281 C 184.457031 202.195312 184.40625 202 184.238281 201.902344 Z M 184.238281 201.902344 " fill-opacity="1" fill-rule="nonzero"/><path fill="#13325b" d="M 184.238281 204.832031 C 181.917969 203.578125 175.820312 200.523438 169.453125 199.34375 C 169.277344 199.3125 169.097656 199.425781 169.066406 199.613281 C 169.035156 199.792969 169.152344 199.96875 169.339844 200 C 175.613281 201.171875 181.625 204.183594 183.925781 205.425781 C 183.976562 205.457031 184.027344 205.46875 184.082031 205.46875 C 184.195312 205.46875 184.3125 205.40625 184.375 205.292969 C 184.457031 205.113281 184.40625 204.914062 184.238281 204.832031 Z M 184.238281 204.832031 " fill-opacity="1" fill-rule="nonzero"/><path fill="#13325b" d="M 184.238281 207.75 C 181.917969 206.492188 175.820312 203.441406 169.453125 202.257812 C 169.277344 202.226562 169.097656 202.34375 169.066406 202.53125 C 169.035156 202.710938 169.152344 202.886719 169.339844 202.917969 C 175.613281 204.089844 181.625 207.101562 183.925781 208.34375 C 183.976562 208.375 184.027344 208.386719 184.082031 208.386719 C 184.195312 208.386719 184.3125 208.324219 184.375 208.207031 C 184.457031 208.042969 184.40625 207.832031 184.238281 207.75 Z M 184.238281 207.75 " fill-opacity="1" fill-rule="nonzero"/><g fill="#9f7944" fill-opacity="1"><g transform="translate(144.227164, 137.400929)"><g><path d="M 14.09375 -9.71875 L 13.96875 -9.71875 C 13.726562 -9.71875 13.488281 -9.644531 13.25 -9.5 C 13.007812 -9.363281 12.84375 -9.160156 12.75 -8.890625 L 10.375 -1.3125 C 10.21875 -0.789062 10.140625 -0.3125 10.140625 0.125 C 10.140625 0.175781 10.140625 0.21875 10.140625 0.25 L 10 0.25 L 6.921875 -6.546875 L 4.703125 -1.3125 C 4.484375 -0.769531 4.367188 -0.25 4.359375 0.25 L 4.21875 0.25 L 0.859375 -8.890625 C 0.734375 -9.171875 0.554688 -9.378906 0.328125 -9.515625 C 0.109375 -9.648438 -0.113281 -9.71875 -0.34375 -9.71875 L -0.46875 -9.71875 L -0.46875 -9.859375 L 3.828125 -9.859375 L 3.828125 -9.71875 L 3.703125 -9.71875 C 3.503906 -9.71875 3.351562 -9.648438 3.25 -9.515625 C 3.15625 -9.390625 3.109375 -9.269531 3.109375 -9.15625 C 3.109375 -9.050781 3.128906 -8.945312 3.171875 -8.84375 L 4.90625 -3.9375 L 7.453125 -10.078125 L 7.578125 -10.0625 L 10.375 -3.890625 L 11.78125 -8.84375 C 11.8125 -8.945312 11.828125 -9.050781 11.828125 -9.15625 C 11.828125 -9.269531 11.78125 -9.390625 11.6875 -9.515625 C 11.601562 -9.648438 11.457031 -9.71875 11.25 -9.71875 L 11.125 -9.71875 L 11.125 -9.859375 L 14.09375 -9.859375 Z M 14.09375 -9.71875 "/></g></g></g><g fill="#9f7944" fill-opacity="1"><g transform="translate(158.879057, 137.400929)"><g><path d="M 10.390625 -0.140625 L 10.515625 -0.140625 L 10.515625 0 L 6.03125 0 L 6.03125 -0.140625 L 6.15625 -0.140625 C 6.363281 -0.140625 6.515625 -0.203125 6.609375 -0.328125 C 6.710938 -0.453125 6.765625 -0.570312 6.765625 -0.6875 C 6.765625 -0.800781 6.738281 -0.914062 6.6875 -1.03125 L 6 -2.765625 L 2.703125 -2.765625 L 1.96875 -1.03125 C 1.925781 -0.90625 1.90625 -0.785156 1.90625 -0.671875 C 1.90625 -0.566406 1.957031 -0.453125 2.0625 -0.328125 C 2.164062 -0.203125 2.316406 -0.140625 2.515625 -0.140625 L 2.640625 -0.140625 L 2.640625 0 L -0.375 0 L -0.375 -0.140625 L -0.25 -0.140625 C -0.03125 -0.140625 0.179688 -0.203125 0.390625 -0.328125 C 0.609375 -0.460938 0.789062 -0.660156 0.9375 -0.921875 L 4.1875 -8.296875 C 4.625 -9.222656 4.859375 -9.835938 4.890625 -10.140625 L 5.015625 -10.140625 L 9.1875 -0.953125 C 9.332031 -0.679688 9.507812 -0.476562 9.71875 -0.34375 C 9.9375 -0.207031 10.160156 -0.140625 10.390625 -0.140625 Z M 2.9375 -3.34375 L 5.765625 -3.34375 L 4.390625 -6.8125 Z M 2.9375 -3.34375 "/></g></g></g><g fill="#9f7944" fill-opacity="1"><g transform="translate(169.942014, 137.400929)"><g><path d="M 4.484375 -9.234375 L 3.875 -9.234375 C 3.851562 -9.234375 3.835938 -9.234375 3.828125 -9.234375 L 3.828125 -1.03125 C 3.835938 -0.78125 3.925781 -0.566406 4.09375 -0.390625 C 4.269531 -0.222656 4.484375 -0.140625 4.734375 -0.140625 L 4.90625 -0.140625 L 4.90625 0 L 0.640625 0 L 0.640625 -0.140625 L 0.8125 -0.140625 C 1.15625 -0.140625 1.414062 -0.285156 1.59375 -0.578125 C 1.664062 -0.710938 1.707031 -0.859375 1.71875 -1.015625 L 1.71875 -8.828125 C 1.707031 -9.066406 1.613281 -9.273438 1.4375 -9.453125 C 1.269531 -9.628906 1.0625 -9.71875 0.8125 -9.71875 L 0.640625 -9.71875 L 0.640625 -9.859375 L 5.46875 -9.859375 C 6.375 -9.859375 7.140625 -9.660156 7.765625 -9.265625 C 8.085938 -9.066406 8.34375 -8.789062 8.53125 -8.4375 C 8.71875 -8.082031 8.8125 -7.617188 8.8125 -7.046875 C 8.8125 -6.484375 8.613281 -5.9375 8.21875 -5.40625 C 7.820312 -4.882812 7.25 -4.585938 6.5 -4.515625 C 7.050781 -4.335938 7.53125 -3.925781 7.9375 -3.28125 C 8.945312 -1.65625 9.695312 -0.6875 10.1875 -0.375 C 10.4375 -0.226562 10.742188 -0.148438 11.109375 -0.140625 L 11.109375 0 L 9.734375 0 C 8.910156 0 8.226562 -0.101562 7.6875 -0.3125 C 7.15625 -0.53125 6.734375 -0.914062 6.421875 -1.46875 C 6.242188 -1.769531 5.851562 -2.570312 5.25 -3.875 C 4.988281 -4.445312 4.671875 -4.757812 4.296875 -4.8125 L 4.296875 -4.953125 L 4.734375 -4.953125 C 5.148438 -4.953125 5.519531 -5.078125 5.84375 -5.328125 C 6.164062 -5.585938 6.382812 -6.003906 6.5 -6.578125 C 6.539062 -6.773438 6.5625 -6.929688 6.5625 -7.046875 C 6.5625 -7.804688 6.40625 -8.359375 6.09375 -8.703125 C 5.78125 -9.046875 5.382812 -9.222656 4.90625 -9.234375 C 4.8125 -9.234375 4.671875 -9.234375 4.484375 -9.234375 Z M 4.484375 -9.234375 "/></g></g></g><g fill="#9f7944" fill-opacity="1"><g transform="translate(181.441277, 137.400929)"><g><path d="M 5.703125 -9.859375 C 7.359375 -9.859375 8.671875 -9.414062 9.640625 -8.53125 C 10.609375 -7.644531 11.09375 -6.441406 11.09375 -4.921875 C 11.09375 -3.398438 10.609375 -2.195312 9.640625 -1.3125 C 8.671875 -0.4375 7.359375 0 5.703125 0 L 0.59375 0 L 0.59375 -0.140625 L 0.78125 -0.140625 C 1.019531 -0.140625 1.222656 -0.222656 1.390625 -0.390625 C 1.566406 -0.566406 1.660156 -0.78125 1.671875 -1.03125 L 1.671875 -8.90625 C 1.671875 -9.132812 1.578125 -9.328125 1.390625 -9.484375 C 1.210938 -9.640625 1.007812 -9.71875 0.78125 -9.71875 L 0.59375 -9.71875 L 0.59375 -9.859375 Z M 5.515625 -0.609375 C 6.191406 -0.609375 6.773438 -0.78125 7.265625 -1.125 C 7.765625 -1.46875 8.144531 -1.96875 8.40625 -2.625 C 8.664062 -3.28125 8.796875 -3.988281 8.796875 -4.75 C 8.796875 -5.519531 8.71875 -6.175781 8.5625 -6.71875 C 8.40625 -7.257812 8.1875 -7.71875 7.90625 -8.09375 C 7.332031 -8.875 6.535156 -9.265625 5.515625 -9.265625 L 3.78125 -9.265625 L 3.78125 -0.609375 Z M 5.515625 -0.609375 "/></g></g></g><g fill="#9f7944" fill-opacity="1"><g transform="translate(194.080554, 137.400929)"><g><path d="M 0.78125 -0.140625 C 1.019531 -0.140625 1.222656 -0.222656 1.390625 -0.390625 C 1.566406 -0.566406 1.660156 -0.78125 1.671875 -1.03125 L 1.671875 -8.84375 C 1.660156 -9.082031 1.566406 -9.285156 1.390625 -9.453125 C 1.222656 -9.628906 1.019531 -9.71875 0.78125 -9.71875 L 0.59375 -9.71875 L 0.59375 -9.859375 L 4.875 -9.859375 L 4.859375 -9.71875 L 4.6875 -9.71875 C 4.445312 -9.71875 4.234375 -9.628906 4.046875 -9.453125 C 3.867188 -9.285156 3.78125 -9.082031 3.78125 -8.84375 L 3.78125 -1.03125 C 3.78125 -0.78125 3.867188 -0.566406 4.046875 -0.390625 C 4.234375 -0.222656 4.445312 -0.140625 4.6875 -0.140625 L 4.859375 -0.140625 L 4.875 0 L 0.59375 0 L 0.59375 -0.140625 Z M 0.78125 -0.140625 "/></g></g></g><g fill="#9f7944" fill-opacity="1"><g transform="translate(200.499007, 137.400929)"><g><path d="M 0.78125 -0.140625 C 1.019531 -0.140625 1.222656 -0.222656 1.390625 -0.390625 C 1.566406 -0.566406 1.660156 -0.78125 1.671875 -1.03125 L 1.671875 -8.875 C 1.648438 -9.113281 1.582031 -9.289062 1.46875 -9.40625 C 1.238281 -9.613281 1.007812 -9.71875 0.78125 -9.71875 L 0.59375 -9.71875 L 0.59375 -9.859375 L 5.984375 -9.859375 C 6.441406 -9.859375 6.820312 -9.890625 7.125 -9.953125 C 7.425781 -10.023438 7.609375 -10.078125 7.671875 -10.109375 L 7.671875 -7.640625 L 7.53125 -7.65625 L 7.53125 -7.8125 C 7.53125 -8.394531 7.316406 -8.804688 6.890625 -9.046875 C 6.679688 -9.171875 6.4375 -9.238281 6.15625 -9.25 L 3.78125 -9.25 L 3.78125 -5.15625 L 5.640625 -5.15625 C 5.992188 -5.164062 6.28125 -5.285156 6.5 -5.515625 C 6.726562 -5.742188 6.84375 -6.023438 6.84375 -6.359375 L 6.84375 -6.484375 L 6.984375 -6.484375 L 6.984375 -3.234375 L 6.84375 -3.234375 L 6.84375 -3.34375 C 6.84375 -3.695312 6.734375 -3.984375 6.515625 -4.203125 C 6.296875 -4.429688 6.015625 -4.550781 5.671875 -4.5625 L 3.78125 -4.5625 L 3.78125 -0.609375 L 5.625 -0.609375 C 6.3125 -0.609375 6.882812 -0.800781 7.34375 -1.1875 C 7.8125 -1.582031 8.160156 -2.144531 8.390625 -2.875 L 8.53125 -2.875 L 7.890625 0 L 0.59375 0 L 0.59375 -0.140625 Z M 0.78125 -0.140625 "/></g></g></g><g fill="#9f7944" fill-opacity="1"><g transform="translate(210.365656, 137.400929)"><g><path d="M 4.484375 -9.234375 L 3.875 -9.234375 C 3.851562 -9.234375 3.835938 -9.234375 3.828125 -9.234375 L 3.828125 -1.03125 C 3.835938 -0.78125 3.925781 -0.566406 4.09375 -0.390625 C 4.269531 -0.222656 4.484375 -0.140625 4.734375 -0.140625 L 4.90625 -0.140625 L 4.90625 0 L 0.640625 0 L 0.640625 -0.140625 L 0.8125 -0.140625 C 1.15625 -0.140625 1.414062 -0.285156 1.59375 -0.578125 C 1.664062 -0.710938 1.707031 -0.859375 1.71875 -1.015625 L 1.71875 -8.828125 C 1.707031 -9.066406 1.613281 -9.273438 1.4375 -9.453125 C 1.269531 -9.628906 1.0625 -9.71875 0.8125 -9.71875 L 0.640625 -9.71875 L 0.640625 -9.859375 L 5.46875 -9.859375 C 6.375 -9.859375 7.140625 -9.660156 7.765625 -9.265625 C 8.085938 -9.066406 8.34375 -8.789062 8.53125 -8.4375 C 8.71875 -8.082031 8.8125 -7.617188 8.8125 -7.046875 C 8.8125 -6.484375 8.613281 -5.9375 8.21875 -5.40625 C 7.820312 -4.882812 7.25 -4.585938 6.5 -4.515625 C 7.050781 -4.335938 7.53125 -3.925781 7.9375 -3.28125 C 8.945312 -1.65625 9.695312 -0.6875 10.1875 -0.375 C 10.4375 -0.226562 10.742188 -0.148438 11.109375 -0.140625 L 11.109375 0 L 9.734375 0 C 8.910156 0 8.226562 -0.101562 7.6875 -0.3125 C 7.15625 -0.53125 6.734375 -0.914062 6.421875 -1.46875 C 6.242188 -1.769531 5.851562 -2.570312 5.25 -3.875 C 4.988281 -4.445312 4.671875 -4.757812 4.296875 -4.8125 L 4.296875 -4.953125 L 4.734375 -4.953125 C 5.148438 -4.953125 5.519531 -5.078125 5.84375 -5.328125 C 6.164062 -5.585938 6.382812 -6.003906 6.5 -6.578125 C 6.539062 -6.773438 6.5625 -6.929688 6.5625 -7.046875 C 6.5625 -7.804688 6.40625 -8.359375 6.09375 -8.703125 C 5.78125 -9.046875 5.382812 -9.222656 4.90625 -9.234375 C 4.8125 -9.234375 4.671875 -9.234375 4.484375 -9.234375 Z M 4.484375 -9.234375 "/></g></g></g><g fill="#9f7944" fill-opacity="1"><g transform="translate(221.864919, 137.400929)"><g><path d="M 0.78125 -0.140625 C 1.019531 -0.140625 1.222656 -0.222656 1.390625 -0.390625 C 1.566406 -0.566406 1.660156 -0.78125 1.671875 -1.03125 L 1.671875 -8.875 C 1.648438 -9.113281 1.582031 -9.289062 1.46875 -9.40625 C 1.238281 -9.613281 1.007812 -9.71875 0.78125 -9.71875 L 0.59375 -9.71875 L 0.59375 -9.859375 L 5.984375 -9.859375 C 6.441406 -9.859375 6.820312 -9.890625 7.125 -9.953125 C 7.425781 -10.023438 7.609375 -10.078125 7.671875 -10.109375 L 7.671875 -7.640625 L 7.53125 -7.65625 L 7.53125 -7.8125 C 7.53125 -8.394531 7.316406 -8.804688 6.890625 -9.046875 C 6.679688 -9.171875 6.4375 -9.238281 6.15625 -9.25 L 3.78125 -9.25 L 3.78125 -5.15625 L 5.640625 -5.15625 C 5.992188 -5.164062 6.28125 -5.285156 6.5 -5.515625 C 6.726562 -5.742188 6.84375 -6.023438 6.84375 -6.359375 L 6.84375 -6.484375 L 6.984375 -6.484375 L 6.984375 -3.234375 L 6.84375 -3.234375 L 6.84375 -3.34375 C 6.84375 -3.695312 6.734375 -3.984375 6.515625 -4.203125 C 6.296875 -4.429688 6.015625 -4.550781 5.671875 -4.5625 L 3.78125 -4.5625 L 3.78125 -0.609375 L 5.625 -0.609375 C 6.3125 -0.609375 6.882812 -0.800781 7.34375 -1.1875 C 7.8125 -1.582031 8.160156 -2.144531 8.390625 -2.875 L 8.53125 -2.875 L 7.890625 0 L 0.59375 0 L 0.59375 -0.140625 Z M 0.78125 -0.140625 "/></g></g></g><g transform="matrix(1, 0, 0, 1, 124, 143)"><g clip-path="url(#cc66409062)"><g fill="#13325b" fill-opacity="1"><g transform="translate(1.034754, 17.462316)"><g><path d="M 16.34375 -16.21875 C 16.5 -16.21875 16.660156 -16.207031 16.828125 -16.1875 L 16.828125 -16.015625 C 15.410156 -15.910156 14.390625 -15.238281 13.765625 -14 C 13.359375 -13.195312 13.15625 -12.179688 13.15625 -10.953125 L 13.15625 -4.546875 C 13.132812 -3.035156 12.648438 -1.859375 11.703125 -1.015625 C 10.753906 -0.171875 9.40625 0.25 7.65625 0.25 C 5.90625 0.25 4.507812 -0.179688 3.46875 -1.046875 C 2.425781 -1.921875 1.910156 -3.082031 1.921875 -4.53125 L 1.921875 -11.515625 C 1.921875 -11.765625 1.828125 -11.972656 1.640625 -12.140625 C 1.453125 -12.304688 1.226562 -12.390625 0.96875 -12.390625 L 0.6875 -12.390625 L 0.6875 -12.5625 L 5.859375 -12.5625 L 5.859375 -12.390625 L 5.5625 -12.390625 C 5.195312 -12.390625 4.921875 -12.242188 4.734375 -11.953125 C 4.648438 -11.828125 4.609375 -11.6875 4.609375 -11.53125 L 4.609375 -4.671875 C 4.609375 -3.398438 4.9375 -2.390625 5.59375 -1.640625 C 6.257812 -0.898438 7.128906 -0.53125 8.203125 -0.53125 C 8.210938 -0.53125 8.21875 -0.53125 8.21875 -0.53125 C 8.21875 -0.53125 8.222656 -0.53125 8.234375 -0.53125 C 9.304688 -0.53125 10.179688 -0.878906 10.859375 -1.578125 C 11.546875 -2.273438 11.890625 -3.226562 11.890625 -4.4375 L 11.890625 -10.953125 C 11.890625 -12.566406 12.316406 -13.847656 13.171875 -14.796875 C 14.023438 -15.742188 15.082031 -16.21875 16.34375 -16.21875 Z M 16.34375 -16.21875 "/></g></g></g><g fill="#13325b" fill-opacity="1"><g transform="translate(16.718934, 17.462316)"><g><path d="M 14.671875 -12.390625 C 14.367188 -12.390625 14.109375 -12.285156 13.890625 -12.078125 C 13.679688 -11.867188 13.566406 -11.613281 13.546875 -11.3125 L 13.546875 -2.046875 C 13.546875 -1.242188 13.601562 -0.566406 13.71875 -0.015625 L 13.765625 0.25 L 13.609375 0.25 L 4.546875 -8.390625 L 4.546875 -1.25 C 4.546875 -0.957031 4.648438 -0.703125 4.859375 -0.484375 C 5.078125 -0.273438 5.335938 -0.171875 5.640625 -0.171875 L 5.984375 -0.171875 L 5.984375 0 L 0.53125 0 L 0.53125 -0.171875 L 0.859375 -0.171875 C 1.171875 -0.171875 1.429688 -0.273438 1.640625 -0.484375 C 1.859375 -0.703125 1.96875 -0.96875 1.96875 -1.28125 L 1.96875 -10.59375 C 1.96875 -11.382812 1.914062 -12.039062 1.8125 -12.5625 L 1.78125 -12.84375 L 1.9375 -12.84375 L 11 -4.203125 L 11 -11.296875 C 10.988281 -11.609375 10.875 -11.867188 10.65625 -12.078125 C 10.445312 -12.285156 10.191406 -12.390625 9.890625 -12.390625 L 9.5625 -12.390625 L 9.5625 -12.5625 L 15.015625 -12.5625 L 15.015625 -12.390625 Z M 14.671875 -12.390625 "/></g></g></g><g fill="#13325b" fill-opacity="1"><g transform="translate(33.138849, 17.462316)"><g><path d="M 0.984375 -0.171875 C 1.296875 -0.171875 1.5625 -0.28125 1.78125 -0.5 C 2.007812 -0.726562 2.128906 -1 2.140625 -1.3125 L 2.140625 -11.28125 C 2.128906 -11.582031 2.007812 -11.84375 1.78125 -12.0625 C 1.5625 -12.28125 1.296875 -12.390625 0.984375 -12.390625 L 0.75 -12.390625 L 0.75 -12.5625 L 6.21875 -12.5625 L 6.1875 -12.390625 L 5.984375 -12.390625 C 5.671875 -12.390625 5.398438 -12.28125 5.171875 -12.0625 C 4.941406 -11.84375 4.828125 -11.582031 4.828125 -11.28125 L 4.828125 -1.3125 C 4.828125 -1 4.941406 -0.726562 5.171875 -0.5 C 5.398438 -0.28125 5.671875 -0.171875 5.984375 -0.171875 L 6.1875 -0.171875 L 6.21875 0 L 0.75 0 L 0.75 -0.171875 Z M 0.984375 -0.171875 "/></g></g></g><g fill="#13325b" fill-opacity="1"><g transform="translate(40.963214, 17.462316)"><g><path d="M 13.59375 -12.390625 L 13.421875 -12.390625 C 13.148438 -12.390625 12.875 -12.304688 12.59375 -12.140625 C 12.320312 -11.972656 12.097656 -11.71875 11.921875 -11.375 L 7.65625 -2 C 7.113281 -0.8125 6.820312 -0.0234375 6.78125 0.359375 L 6.625 0.359375 L 1.1875 -11.359375 C 1 -11.691406 0.769531 -11.945312 0.5 -12.125 C 0.226562 -12.300781 -0.0507812 -12.390625 -0.34375 -12.390625 L -0.484375 -12.390625 L -0.484375 -12.5625 L 5.21875 -12.5625 L 5.21875 -12.390625 L 5.078125 -12.390625 C 4.816406 -12.390625 4.625 -12.304688 4.5 -12.140625 C 4.375 -11.984375 4.3125 -11.832031 4.3125 -11.6875 C 4.3125 -11.539062 4.332031 -11.394531 4.375 -11.25 L 7.4375 -3.84375 L 10.59375 -11.25 C 10.65625 -11.40625 10.6875 -11.550781 10.6875 -11.6875 C 10.6875 -11.832031 10.617188 -11.984375 10.484375 -12.140625 C 10.359375 -12.304688 10.164062 -12.390625 9.90625 -12.390625 L 9.75 -12.390625 L 9.75 -12.5625 L 13.59375 -12.5625 Z M 13.59375 -12.390625 "/></g></g></g><g fill="#13325b" fill-opacity="1"><g transform="translate(54.90675, 17.462316)"><g><path d="M 0.984375 -0.171875 C 1.296875 -0.171875 1.5625 -0.28125 1.78125 -0.5 C 2.007812 -0.726562 2.128906 -1 2.140625 -1.3125 L 2.140625 -11.3125 C 2.097656 -11.726562 1.898438 -12.039062 1.546875 -12.25 C 1.367188 -12.34375 1.179688 -12.390625 0.984375 -12.390625 L 0.75 -12.390625 L 0.75 -12.5625 L 7.625 -12.5625 C 8 -12.5625 8.40625 -12.597656 8.84375 -12.671875 C 9.289062 -12.742188 9.601562 -12.816406 9.78125 -12.890625 L 9.78125 -9.75 L 9.609375 -9.75 L 9.609375 -9.96875 C 9.609375 -10.5 9.445312 -10.929688 9.125 -11.265625 C 8.8125 -11.597656 8.382812 -11.773438 7.84375 -11.796875 L 4.828125 -11.796875 L 4.828125 -6.578125 L 7.203125 -6.578125 C 7.640625 -6.585938 8 -6.738281 8.28125 -7.03125 C 8.570312 -7.320312 8.71875 -7.679688 8.71875 -8.109375 L 8.71875 -8.28125 L 8.90625 -8.28125 L 8.90625 -4.125 L 8.71875 -4.125 L 8.71875 -4.265625 C 8.71875 -4.867188 8.476562 -5.3125 8 -5.59375 C 7.757812 -5.726562 7.5 -5.800781 7.21875 -5.8125 L 4.828125 -5.8125 L 4.828125 -0.765625 L 7.1875 -0.765625 C 8.050781 -0.765625 8.78125 -1.015625 9.375 -1.515625 C 9.96875 -2.023438 10.410156 -2.738281 10.703125 -3.65625 L 10.875 -3.65625 L 10.046875 0 L 0.75 0 L 0.75 -0.171875 Z M 0.984375 -0.171875 "/></g></g></g><g fill="#13325b" fill-opacity="1"><g transform="translate(67.127587, 17.462316)"><g><path d="M 5.703125 -11.78125 L 4.9375 -11.78125 C 4.914062 -11.78125 4.898438 -11.78125 4.890625 -11.78125 L 4.890625 -1.3125 C 4.898438 -0.863281 5.085938 -0.535156 5.453125 -0.328125 C 5.640625 -0.222656 5.832031 -0.171875 6.03125 -0.171875 L 6.265625 -0.171875 L 6.265625 0 L 0.8125 0 L 0.8125 -0.171875 L 1.046875 -0.171875 C 1.472656 -0.171875 1.800781 -0.359375 2.03125 -0.734375 C 2.125 -0.898438 2.175781 -1.085938 2.1875 -1.296875 L 2.1875 -11.25 C 2.175781 -11.5625 2.0625 -11.828125 1.84375 -12.046875 C 1.625 -12.273438 1.359375 -12.390625 1.046875 -12.390625 L 0.8125 -12.390625 L 0.8125 -12.5625 L 6.96875 -12.5625 C 8.125 -12.5625 9.101562 -12.3125 9.90625 -11.8125 C 10.3125 -11.5625 10.632812 -11.210938 10.875 -10.765625 C 11.113281 -10.316406 11.234375 -9.804688 11.234375 -9.234375 C 11.234375 -8.671875 11.132812 -8.148438 10.9375 -7.671875 C 10.738281 -7.191406 10.410156 -6.769531 9.953125 -6.40625 C 9.492188 -6.050781 8.941406 -5.835938 8.296875 -5.765625 C 8.984375 -5.535156 9.59375 -5.007812 10.125 -4.1875 C 11.414062 -2.113281 12.375 -0.878906 13 -0.484375 C 13.3125 -0.296875 13.703125 -0.191406 14.171875 -0.171875 L 14.171875 0 L 12.40625 0 C 11.382812 0 10.53125 -0.140625 9.84375 -0.421875 C 9.164062 -0.703125 8.613281 -1.179688 8.1875 -1.859375 C 7.96875 -2.210938 7.691406 -2.738281 7.359375 -3.4375 C 7.023438 -4.132812 6.804688 -4.632812 6.703125 -4.9375 C 6.378906 -5.65625 5.96875 -6.054688 5.46875 -6.140625 L 5.46875 -6.3125 L 6.03125 -6.3125 C 6.570312 -6.3125 7.046875 -6.472656 7.453125 -6.796875 C 7.867188 -7.117188 8.148438 -7.648438 8.296875 -8.390625 C 8.335938 -8.640625 8.359375 -8.835938 8.359375 -8.984375 C 8.359375 -9.960938 8.160156 -10.671875 7.765625 -11.109375 C 7.378906 -11.546875 6.875 -11.769531 6.25 -11.78125 C 6.125 -11.78125 5.941406 -11.78125 5.703125 -11.78125 Z M 5.703125 -11.78125 "/></g></g></g><g fill="#13325b" fill-opacity="1"><g transform="translate(81.412071, 17.462316)"><g><path d="M 0.890625 -1.671875 C 0.890625 -2.535156 1.078125 -3.269531 1.453125 -3.875 L 1.609375 -3.875 C 1.597656 -3.78125 1.59375 -3.6875 1.59375 -3.59375 C 1.59375 -2.769531 1.890625 -2.046875 2.484375 -1.421875 C 3.078125 -0.804688 3.890625 -0.5 4.921875 -0.5 C 5.722656 -0.5 6.347656 -0.691406 6.796875 -1.078125 C 7.242188 -1.460938 7.46875 -1.945312 7.46875 -2.53125 C 7.46875 -3.238281 6.988281 -3.851562 6.03125 -4.375 L 2.90625 -6.4375 C 2.28125 -6.800781 1.832031 -7.238281 1.5625 -7.75 C 1.300781 -8.257812 1.171875 -8.773438 1.171875 -9.296875 C 1.171875 -10.421875 1.523438 -11.285156 2.234375 -11.890625 C 2.941406 -12.503906 3.851562 -12.8125 4.96875 -12.8125 C 5.625 -12.8125 6.441406 -12.753906 7.421875 -12.640625 L 8.546875 -12.640625 L 8.3125 -10 L 8.125 -10 C 8.125 -10.625 7.894531 -11.125 7.4375 -11.5 C 6.976562 -11.875 6.363281 -12.0625 5.59375 -12.0625 C 4.664062 -12.0625 3.992188 -11.773438 3.578125 -11.203125 C 3.359375 -10.929688 3.25 -10.617188 3.25 -10.265625 C 3.25 -9.691406 3.664062 -9.160156 4.5 -8.671875 L 7.9375 -6.4375 C 9.007812 -5.820312 9.546875 -4.910156 9.546875 -3.703125 C 9.546875 -2.421875 9.113281 -1.441406 8.25 -0.765625 C 7.382812 -0.0859375 6.234375 0.25 4.796875 0.25 C 3.984375 0.25 3.234375 0.148438 2.546875 -0.046875 C 1.859375 -0.242188 1.347656 -0.507812 1.015625 -0.84375 C 0.929688 -1.070312 0.890625 -1.347656 0.890625 -1.671875 Z M 0.890625 -1.671875 "/></g></g></g><g fill="#13325b" fill-opacity="1"><g transform="translate(92.681834, 17.462316)"><g><path d="M 0.984375 -0.171875 C 1.296875 -0.171875 1.5625 -0.28125 1.78125 -0.5 C 2.007812 -0.726562 2.128906 -1 2.140625 -1.3125 L 2.140625 -11.28125 C 2.128906 -11.582031 2.007812 -11.84375 1.78125 -12.0625 C 1.5625 -12.28125 1.296875 -12.390625 0.984375 -12.390625 L 0.75 -12.390625 L 0.75 -12.5625 L 6.21875 -12.5625 L 6.1875 -12.390625 L 5.984375 -12.390625 C 5.671875 -12.390625 5.398438 -12.28125 5.171875 -12.0625 C 4.941406 -11.84375 4.828125 -11.582031 4.828125 -11.28125 L 4.828125 -1.3125 C 4.828125 -1 4.941406 -0.726562 5.171875 -0.5 C 5.398438 -0.28125 5.671875 -0.171875 5.984375 -0.171875 L 6.1875 -0.171875 L 6.21875 0 L 0.75 0 L 0.75 -0.171875 Z M 0.984375 -0.171875 "/></g></g></g><g fill="#13325b" fill-opacity="1"><g transform="translate(100.5062, 17.462316)"><g><path d="M 7.34375 -11.828125 L 7.34375 -1.296875 C 7.351562 -0.984375 7.46875 -0.71875 7.6875 -0.5 C 7.914062 -0.28125 8.179688 -0.171875 8.484375 -0.171875 L 8.703125 -0.171875 L 8.71875 0 L 3.265625 0 L 3.265625 -0.171875 L 3.5 -0.171875 C 3.800781 -0.171875 4.0625 -0.28125 4.28125 -0.5 C 4.5 -0.71875 4.625 -0.976562 4.65625 -1.28125 L 4.65625 -11.828125 L 2.21875 -11.828125 C 1.675781 -11.816406 1.242188 -11.644531 0.921875 -11.3125 C 0.597656 -10.976562 0.4375 -10.539062 0.4375 -10 L 0.4375 -9.78125 L 0.25 -9.78125 L 0.25 -12.90625 C 0.414062 -12.832031 0.71875 -12.757812 1.15625 -12.6875 C 1.59375 -12.613281 2 -12.578125 2.375 -12.578125 L 9.609375 -12.578125 C 10.191406 -12.597656 10.664062 -12.648438 11.03125 -12.734375 C 11.40625 -12.816406 11.632812 -12.875 11.71875 -12.90625 L 11.71875 -9.78125 L 11.546875 -9.78125 L 11.546875 -10 C 11.546875 -10.539062 11.382812 -10.976562 11.0625 -11.3125 C 10.738281 -11.644531 10.300781 -11.816406 9.75 -11.828125 Z M 7.34375 -11.828125 "/></g></g></g><g fill="#13325b" fill-opacity="1"><g transform="translate(113.355106, 17.462316)"><g><path d="M 13.1875 -12.390625 L 12.9375 -12.390625 C 12.582031 -12.390625 12.242188 -12.285156 11.921875 -12.078125 C 11.597656 -11.878906 11.335938 -11.632812 11.140625 -11.34375 L 7.609375 -5.703125 L 7.609375 -1.3125 C 7.609375 -1 7.722656 -0.726562 7.953125 -0.5 C 8.179688 -0.28125 8.453125 -0.171875 8.765625 -0.171875 L 8.96875 -0.171875 L 9 0 L 3.53125 0 L 3.53125 -0.171875 L 3.765625 -0.171875 C 4.078125 -0.171875 4.34375 -0.28125 4.5625 -0.5 C 4.789062 -0.71875 4.910156 -0.984375 4.921875 -1.296875 L 4.921875 -5.734375 L 1.484375 -11.359375 C 1.304688 -11.648438 1.050781 -11.894531 0.71875 -12.09375 C 0.394531 -12.289062 0.0546875 -12.390625 -0.296875 -12.390625 L -0.546875 -12.390625 L -0.546875 -12.5625 L 5.40625 -12.5625 L 5.40625 -12.390625 L 5.171875 -12.390625 C 4.898438 -12.390625 4.695312 -12.269531 4.5625 -12.03125 C 4.488281 -11.894531 4.453125 -11.765625 4.453125 -11.640625 C 4.453125 -11.515625 4.484375 -11.394531 4.546875 -11.28125 L 7.109375 -6.609375 L 9.765625 -11.28125 C 9.835938 -11.394531 9.875 -11.515625 9.875 -11.640625 C 9.875 -11.765625 9.832031 -11.890625 9.75 -12.015625 C 9.601562 -12.265625 9.398438 -12.390625 9.140625 -12.390625 L 8.921875 -12.390625 L 8.921875 -12.5625 L 13.1875 -12.5625 Z M 13.1875 -12.390625 "/></g></g></g></g></g><g transform="matrix(1, 0, 0, 1, 175, 258)"><g clip-path="url(#3ca9b993ad)"><g fill="#13325b" fill-opacity="1"><g transform="translate(1.121716, 9.927574)"><g><path d="M 0.859375 0 L 0.859375 -0.46875 L 1.578125 -0.46875 C 1.648438 -0.46875 1.710938 -0.472656 1.765625 -0.484375 C 1.816406 -0.503906 1.859375 -0.535156 1.890625 -0.578125 C 1.929688 -0.628906 1.957031 -0.691406 1.96875 -0.765625 C 1.988281 -0.835938 2 -0.925781 2 -1.03125 L 2 -5.421875 C 1.894531 -5.285156 1.789062 -5.160156 1.6875 -5.046875 C 1.59375 -4.941406 1.5 -4.847656 1.40625 -4.765625 C 1.3125 -4.679688 1.222656 -4.617188 1.140625 -4.578125 C 1.054688 -4.535156 0.96875 -4.515625 0.875 -4.515625 C 0.800781 -4.515625 0.734375 -4.53125 0.671875 -4.5625 C 0.617188 -4.59375 0.566406 -4.632812 0.515625 -4.6875 C 0.472656 -4.75 0.4375 -4.816406 0.40625 -4.890625 C 0.382812 -4.972656 0.375 -5.0625 0.375 -5.15625 C 0.457031 -5.1875 0.546875 -5.21875 0.640625 -5.25 C 0.742188 -5.28125 0.847656 -5.320312 0.953125 -5.375 C 1.066406 -5.425781 1.1875 -5.488281 1.3125 -5.5625 C 1.4375 -5.632812 1.570312 -5.726562 1.71875 -5.84375 L 2.328125 -6.296875 L 3.3125 -6.296875 L 3.3125 -1.03125 C 3.3125 -0.945312 3.316406 -0.867188 3.328125 -0.796875 C 3.335938 -0.722656 3.359375 -0.660156 3.390625 -0.609375 C 3.429688 -0.566406 3.476562 -0.53125 3.53125 -0.5 C 3.59375 -0.476562 3.671875 -0.46875 3.765625 -0.46875 L 4.46875 -0.46875 L 4.46875 0 Z M 0.859375 0 "/></g></g></g><g fill="#13325b" fill-opacity="1"><g transform="translate(7.069805, 9.927574)"><g><path d="M 1.984375 0.078125 C 1.722656 0.078125 1.5 0.0507812 1.3125 0 C 1.132812 -0.0507812 0.988281 -0.125 0.875 -0.21875 C 0.757812 -0.3125 0.675781 -0.414062 0.625 -0.53125 C 0.570312 -0.65625 0.546875 -0.78125 0.546875 -0.90625 C 0.546875 -1.03125 0.578125 -1.132812 0.640625 -1.21875 C 0.710938 -1.3125 0.828125 -1.375 0.984375 -1.40625 C 1.023438 -1.269531 1.070312 -1.144531 1.125 -1.03125 C 1.1875 -0.914062 1.257812 -0.816406 1.34375 -0.734375 C 1.4375 -0.648438 1.535156 -0.582031 1.640625 -0.53125 C 1.753906 -0.488281 1.882812 -0.46875 2.03125 -0.46875 C 2.425781 -0.46875 2.726562 -0.675781 2.9375 -1.09375 C 3.15625 -1.519531 3.273438 -2.15625 3.296875 -3 C 3.234375 -2.914062 3.160156 -2.835938 3.078125 -2.765625 C 2.992188 -2.691406 2.894531 -2.628906 2.78125 -2.578125 C 2.675781 -2.523438 2.5625 -2.484375 2.4375 -2.453125 C 2.3125 -2.421875 2.175781 -2.40625 2.03125 -2.40625 C 1.769531 -2.40625 1.535156 -2.441406 1.328125 -2.515625 C 1.117188 -2.597656 0.9375 -2.71875 0.78125 -2.875 C 0.632812 -3.03125 0.519531 -3.21875 0.4375 -3.4375 C 0.351562 -3.664062 0.3125 -3.925781 0.3125 -4.21875 C 0.3125 -4.539062 0.351562 -4.832031 0.4375 -5.09375 C 0.53125 -5.351562 0.660156 -5.578125 0.828125 -5.765625 C 1.003906 -5.953125 1.21875 -6.09375 1.46875 -6.1875 C 1.71875 -6.289062 2 -6.34375 2.3125 -6.34375 C 2.632812 -6.34375 2.925781 -6.285156 3.1875 -6.171875 C 3.457031 -6.054688 3.691406 -5.878906 3.890625 -5.640625 C 4.085938 -5.398438 4.238281 -5.09375 4.34375 -4.71875 C 4.445312 -4.351562 4.5 -3.914062 4.5 -3.40625 C 4.5 -2.914062 4.453125 -2.457031 4.359375 -2.03125 C 4.265625 -1.613281 4.117188 -1.25 3.921875 -0.9375 C 3.722656 -0.625 3.460938 -0.375 3.140625 -0.1875 C 2.828125 -0.0078125 2.441406 0.078125 1.984375 0.078125 Z M 2.40625 -3.046875 C 2.613281 -3.046875 2.789062 -3.097656 2.9375 -3.203125 C 3.09375 -3.304688 3.210938 -3.445312 3.296875 -3.625 C 3.296875 -4 3.269531 -4.320312 3.21875 -4.59375 C 3.175781 -4.863281 3.113281 -5.082031 3.03125 -5.25 C 2.957031 -5.425781 2.863281 -5.554688 2.75 -5.640625 C 2.632812 -5.722656 2.503906 -5.765625 2.359375 -5.765625 C 2.109375 -5.765625 1.914062 -5.640625 1.78125 -5.390625 C 1.644531 -5.140625 1.578125 -4.769531 1.578125 -4.28125 C 1.578125 -3.875 1.644531 -3.566406 1.78125 -3.359375 C 1.914062 -3.148438 2.125 -3.046875 2.40625 -3.046875 Z M 2.40625 -3.046875 "/></g></g></g><g fill="#13325b" fill-opacity="1"><g transform="translate(13.017893, 9.927574)"><g><path d="M 0.265625 -1.59375 C 0.265625 -1.78125 0.289062 -1.945312 0.34375 -2.09375 C 0.40625 -2.25 0.492188 -2.390625 0.609375 -2.515625 C 0.722656 -2.640625 0.859375 -2.753906 1.015625 -2.859375 C 1.179688 -2.960938 1.359375 -3.0625 1.546875 -3.15625 C 1.203125 -3.363281 0.9375 -3.59375 0.75 -3.84375 C 0.5625 -4.101562 0.46875 -4.40625 0.46875 -4.75 C 0.46875 -4.957031 0.5 -5.15625 0.5625 -5.34375 C 0.632812 -5.53125 0.75 -5.695312 0.90625 -5.84375 C 1.070312 -6 1.285156 -6.117188 1.546875 -6.203125 C 1.804688 -6.296875 2.125 -6.34375 2.5 -6.34375 C 2.8125 -6.34375 3.082031 -6.300781 3.3125 -6.21875 C 3.539062 -6.144531 3.734375 -6.039062 3.890625 -5.90625 C 4.046875 -5.769531 4.160156 -5.609375 4.234375 -5.421875 C 4.316406 -5.234375 4.359375 -5.03125 4.359375 -4.8125 C 4.359375 -4.632812 4.332031 -4.476562 4.28125 -4.34375 C 4.226562 -4.207031 4.148438 -4.082031 4.046875 -3.96875 C 3.941406 -3.863281 3.816406 -3.765625 3.671875 -3.671875 C 3.523438 -3.578125 3.363281 -3.484375 3.1875 -3.390625 C 3.445312 -3.265625 3.664062 -3.132812 3.84375 -3 C 4.03125 -2.875 4.179688 -2.738281 4.296875 -2.59375 C 4.421875 -2.457031 4.507812 -2.3125 4.5625 -2.15625 C 4.613281 -2 4.640625 -1.832031 4.640625 -1.65625 C 4.640625 -1.375 4.585938 -1.125 4.484375 -0.90625 C 4.378906 -0.695312 4.226562 -0.519531 4.03125 -0.375 C 3.84375 -0.226562 3.609375 -0.113281 3.328125 -0.03125 C 3.054688 0.0390625 2.742188 0.078125 2.390625 0.078125 C 2.023438 0.078125 1.707031 0.0351562 1.4375 -0.046875 C 1.175781 -0.140625 0.957031 -0.257812 0.78125 -0.40625 C 0.601562 -0.5625 0.472656 -0.738281 0.390625 -0.9375 C 0.304688 -1.144531 0.265625 -1.363281 0.265625 -1.59375 Z M 2.4375 -0.40625 C 2.582031 -0.40625 2.71875 -0.429688 2.84375 -0.484375 C 2.96875 -0.546875 3.070312 -0.625 3.15625 -0.71875 C 3.238281 -0.8125 3.300781 -0.925781 3.34375 -1.0625 C 3.394531 -1.195312 3.421875 -1.34375 3.421875 -1.5 C 3.421875 -1.644531 3.394531 -1.773438 3.34375 -1.890625 C 3.300781 -2.003906 3.226562 -2.113281 3.125 -2.21875 C 3.019531 -2.320312 2.882812 -2.421875 2.71875 -2.515625 C 2.5625 -2.609375 2.367188 -2.707031 2.140625 -2.8125 C 2.046875 -2.75 1.953125 -2.675781 1.859375 -2.59375 C 1.773438 -2.507812 1.703125 -2.414062 1.640625 -2.3125 C 1.578125 -2.21875 1.53125 -2.109375 1.5 -1.984375 C 1.46875 -1.859375 1.453125 -1.71875 1.453125 -1.5625 C 1.453125 -1.394531 1.472656 -1.238281 1.515625 -1.09375 C 1.566406 -0.945312 1.632812 -0.820312 1.71875 -0.71875 C 1.800781 -0.625 1.90625 -0.546875 2.03125 -0.484375 C 2.15625 -0.429688 2.289062 -0.40625 2.4375 -0.40625 Z M 3.265625 -4.828125 C 3.265625 -4.953125 3.242188 -5.070312 3.203125 -5.1875 C 3.171875 -5.3125 3.117188 -5.421875 3.046875 -5.515625 C 2.984375 -5.609375 2.898438 -5.6875 2.796875 -5.75 C 2.691406 -5.8125 2.570312 -5.84375 2.4375 -5.84375 C 2.320312 -5.84375 2.21875 -5.816406 2.125 -5.765625 C 2.03125 -5.710938 1.953125 -5.640625 1.890625 -5.546875 C 1.828125 -5.460938 1.78125 -5.359375 1.75 -5.234375 C 1.71875 -5.117188 1.703125 -4.992188 1.703125 -4.859375 C 1.703125 -4.703125 1.722656 -4.566406 1.765625 -4.453125 C 1.804688 -4.335938 1.863281 -4.234375 1.9375 -4.140625 C 2.019531 -4.054688 2.117188 -3.976562 2.234375 -3.90625 C 2.347656 -3.832031 2.484375 -3.757812 2.640625 -3.6875 C 2.753906 -3.75 2.847656 -3.816406 2.921875 -3.890625 C 2.992188 -3.960938 3.054688 -4.039062 3.109375 -4.125 C 3.160156 -4.21875 3.195312 -4.320312 3.21875 -4.4375 C 3.25 -4.550781 3.265625 -4.679688 3.265625 -4.828125 Z M 3.265625 -4.828125 "/></g></g></g><g fill="#13325b" fill-opacity="1"><g transform="translate(18.965981, 9.927574)"><g><path d="M 2.8125 -5.828125 C 2.644531 -5.828125 2.488281 -5.773438 2.34375 -5.671875 C 2.207031 -5.566406 2.085938 -5.414062 1.984375 -5.21875 C 1.890625 -5.03125 1.8125 -4.789062 1.75 -4.5 C 1.6875 -4.21875 1.644531 -3.890625 1.625 -3.515625 C 1.6875 -3.554688 1.753906 -3.59375 1.828125 -3.625 C 1.910156 -3.664062 2 -3.703125 2.09375 -3.734375 C 2.195312 -3.765625 2.3125 -3.789062 2.4375 -3.8125 C 2.5625 -3.832031 2.695312 -3.84375 2.84375 -3.84375 C 3.101562 -3.84375 3.34375 -3.800781 3.5625 -3.71875 C 3.78125 -3.632812 3.960938 -3.515625 4.109375 -3.359375 C 4.265625 -3.203125 4.382812 -3.007812 4.46875 -2.78125 C 4.550781 -2.5625 4.59375 -2.3125 4.59375 -2.03125 C 4.59375 -1.707031 4.546875 -1.414062 4.453125 -1.15625 C 4.367188 -0.90625 4.242188 -0.6875 4.078125 -0.5 C 3.910156 -0.3125 3.695312 -0.164062 3.4375 -0.0625 C 3.1875 0.03125 2.894531 0.078125 2.5625 0.078125 C 2.238281 0.078125 1.941406 0.0195312 1.671875 -0.09375 C 1.410156 -0.207031 1.179688 -0.382812 0.984375 -0.625 C 0.796875 -0.875 0.648438 -1.1875 0.546875 -1.5625 C 0.441406 -1.9375 0.390625 -2.378906 0.390625 -2.890625 C 0.390625 -3.367188 0.441406 -3.816406 0.546875 -4.234375 C 0.648438 -4.660156 0.800781 -5.03125 1 -5.34375 C 1.207031 -5.65625 1.46875 -5.898438 1.78125 -6.078125 C 2.101562 -6.253906 2.472656 -6.34375 2.890625 -6.34375 C 3.171875 -6.34375 3.410156 -6.316406 3.609375 -6.265625 C 3.804688 -6.210938 3.96875 -6.140625 4.09375 -6.046875 C 4.21875 -5.960938 4.304688 -5.859375 4.359375 -5.734375 C 4.410156 -5.617188 4.4375 -5.5 4.4375 -5.375 C 4.4375 -5.289062 4.414062 -5.207031 4.375 -5.125 C 4.34375 -5.039062 4.285156 -4.96875 4.203125 -4.90625 C 4.117188 -4.84375 4.007812 -4.789062 3.875 -4.75 C 3.75 -4.71875 3.585938 -4.703125 3.390625 -4.703125 C 3.390625 -4.828125 3.378906 -4.957031 3.359375 -5.09375 C 3.347656 -5.226562 3.320312 -5.347656 3.28125 -5.453125 C 3.238281 -5.566406 3.175781 -5.65625 3.09375 -5.71875 C 3.019531 -5.789062 2.925781 -5.828125 2.8125 -5.828125 Z M 2.515625 -3.296875 C 2.429688 -3.296875 2.34375 -3.285156 2.25 -3.265625 C 2.164062 -3.242188 2.082031 -3.210938 2 -3.171875 C 1.925781 -3.128906 1.851562 -3.082031 1.78125 -3.03125 C 1.71875 -2.988281 1.664062 -2.941406 1.625 -2.890625 C 1.632812 -2.460938 1.660156 -2.097656 1.703125 -1.796875 C 1.753906 -1.492188 1.820312 -1.242188 1.90625 -1.046875 C 2 -0.859375 2.101562 -0.71875 2.21875 -0.625 C 2.332031 -0.539062 2.457031 -0.5 2.59375 -0.5 C 2.820312 -0.5 3 -0.613281 3.125 -0.84375 C 3.257812 -1.070312 3.328125 -1.4375 3.328125 -1.9375 C 3.328125 -2.414062 3.253906 -2.757812 3.109375 -2.96875 C 2.960938 -3.1875 2.765625 -3.296875 2.515625 -3.296875 Z M 2.515625 -3.296875 "/></g></g></g></g></g></svg>