<svg xmlns="http://www.w3.org/2000/svg" xmlns:xlink="http://www.w3.org/1999/xlink" width="500" zoomAndPan="magnify" viewBox="0 0 375 374.999991" height="500" preserveAspectRatio="xMidYMid meet" version="1.0"><defs><g/><clipPath id="c54cc46cd2"><path d="M 103.125 151.828125 L 180.035156 151.828125 L 180.035156 232.941406 L 103.125 232.941406 Z M 103.125 151.828125 " clip-rule="nonzero"/></clipPath><clipPath id="3e3db7b11c"><path d="M 128.777344 230.640625 C 132.71875 231.984375 137.203125 232.863281 141.601562 232.863281 C 146 232.863281 150.234375 232.109375 154.136719 230.765625 C 154.21875 230.726562 154.300781 230.726562 154.386719 230.683594 C 169.035156 225.320312 179.828125 211.15625 180.035156 194.90625 L 180.035156 151.828125 L 103.125 151.828125 L 103.125 194.875 C 103.332031 211.242188 113.957031 225.402344 128.777344 230.640625 Z M 128.777344 230.640625 " clip-rule="nonzero"/></clipPath><clipPath id="87bfb1a257"><path d="M 0.125 0.828125 L 77.035156 0.828125 L 77.035156 81.941406 L 0.125 81.941406 Z M 0.125 0.828125 " clip-rule="nonzero"/></clipPath><clipPath id="cdd264342f"><path d="M 25.777344 79.640625 C 29.71875 80.984375 34.203125 81.863281 38.601562 81.863281 C 43 81.863281 47.234375 81.109375 51.136719 79.765625 C 51.21875 79.726562 51.300781 79.726562 51.386719 79.683594 C 66.035156 74.320312 76.828125 60.15625 77.035156 43.90625 L 77.035156 0.828125 L 0.125 0.828125 L 0.125 43.875 C 0.332031 60.242188 10.957031 74.402344 25.777344 79.640625 Z M 25.777344 79.640625 " clip-rule="nonzero"/></clipPath><clipPath id="ac911a7198"><rect x="0" width="78" y="0" height="82"/></clipPath><clipPath id="a1b5659409"><path d="M 106.242188 155.109375 L 176.917969 155.109375 L 176.917969 229.652344 L 106.242188 229.652344 Z M 106.242188 155.109375 " clip-rule="nonzero"/></clipPath><clipPath id="e222d836e5"><path d="M 129.8125 227.539062 C 133.4375 228.769531 137.554688 229.578125 141.597656 229.578125 C 145.640625 229.578125 149.53125 228.886719 153.117188 227.652344 C 153.195312 227.613281 153.269531 227.613281 153.347656 227.578125 C 166.8125 222.648438 176.726562 209.632812 176.917969 194.699219 L 176.917969 155.109375 L 106.242188 155.109375 L 106.242188 194.671875 C 106.433594 209.710938 116.195312 222.726562 129.8125 227.539062 Z M 129.8125 227.539062 " clip-rule="nonzero"/></clipPath><clipPath id="05e6d5e26a"><path d="M 0.242188 0.109375 L 70.917969 0.109375 L 70.917969 74.652344 L 0.242188 74.652344 Z M 0.242188 0.109375 " clip-rule="nonzero"/></clipPath><clipPath id="c6b5450424"><path d="M 23.8125 72.539062 C 27.4375 73.769531 31.554688 74.578125 35.597656 74.578125 C 39.640625 74.578125 43.53125 73.886719 47.117188 72.652344 C 47.195312 72.613281 47.269531 72.613281 47.347656 72.578125 C 60.8125 67.648438 70.726562 54.632812 70.917969 39.699219 L 70.917969 0.109375 L 0.242188 0.109375 L 0.242188 39.671875 C 0.433594 54.710938 10.195312 67.726562 23.8125 72.539062 Z M 23.8125 72.539062 " clip-rule="nonzero"/></clipPath><clipPath id="20791698a1"><rect x="0" width="71" y="0" height="75"/></clipPath><clipPath id="3273b4e7ab"><path d="M 103.523438 153.730469 L 141.582031 153.730469 L 141.582031 192.34375 L 103.523438 192.34375 Z M 103.523438 153.730469 " clip-rule="nonzero"/></clipPath><clipPath id="59568c3f83"><path d="M 0.523438 0.730469 L 38.582031 0.730469 L 38.582031 39.34375 L 0.523438 39.34375 Z M 0.523438 0.730469 " clip-rule="nonzero"/></clipPath><clipPath id="075b08d11d"><rect x="0" width="39" y="0" height="40"/></clipPath><clipPath id="3a6692f924"><path d="M 105 186 L 139 186 L 139 226 L 105 226 Z M 105 186 " clip-rule="nonzero"/></clipPath><clipPath id="ca7a75769a"><path d="M 130.394531 180.066406 L 144.78125 217.800781 L 117.25 228.300781 L 102.863281 190.566406 Z M 130.394531 180.066406 " clip-rule="nonzero"/></clipPath><clipPath id="52300be863"><path d="M 136.335938 211.078125 L 129.9375 221.382812 C 128.148438 224.261719 124.882812 225.878906 121.511719 225.554688 C 118.136719 225.234375 115.238281 223.023438 114.03125 219.855469 L 106.078125 199 C 104.871094 195.832031 105.5625 192.253906 107.863281 189.765625 C 110.167969 187.277344 113.679688 186.3125 116.929688 187.269531 L 128.566406 190.699219 C 132.671875 191.90625 135.972656 194.964844 137.5 198.964844 C 139.023438 202.960938 138.59375 207.441406 136.335938 211.078125 Z M 136.335938 211.078125 " clip-rule="nonzero"/></clipPath><clipPath id="ca31ac4252"><path d="M 0 0.238281 L 34 0.238281 L 34 40 L 0 40 Z M 0 0.238281 " clip-rule="nonzero"/></clipPath><clipPath id="83517d2f4a"><path d="M 25.394531 -5.933594 L 39.78125 31.800781 L 12.25 42.300781 L -2.136719 4.566406 Z M 25.394531 -5.933594 " clip-rule="nonzero"/></clipPath><clipPath id="aa86318d33"><path d="M 31.335938 25.078125 L 24.9375 35.382812 C 23.148438 38.261719 19.882812 39.878906 16.511719 39.554688 C 13.136719 39.234375 10.238281 37.023438 9.03125 33.855469 L 1.078125 13 C -0.128906 9.832031 0.5625 6.253906 2.863281 3.765625 C 5.167969 1.277344 8.679688 0.3125 11.929688 1.269531 L 23.566406 4.699219 C 27.671875 5.90625 30.972656 8.964844 32.5 12.964844 C 34.023438 16.960938 33.59375 21.441406 31.335938 25.078125 Z M 31.335938 25.078125 " clip-rule="nonzero"/></clipPath><clipPath id="f30a96d81d"><rect x="0" width="34" y="0" height="40"/></clipPath><clipPath id="ad81341f29"><path d="M 122.53125 181.410156 L 141.582031 181.410156 L 141.582031 227.550781 L 122.53125 227.550781 Z M 122.53125 181.410156 " clip-rule="nonzero"/></clipPath><clipPath id="18e2363be3"><path d="M 0.53125 0.410156 L 19.582031 0.410156 L 19.582031 46.550781 L 0.53125 46.550781 Z M 0.53125 0.410156 " clip-rule="nonzero"/></clipPath><clipPath id="2ce2e8f26c"><rect x="0" width="20" y="0" height="47"/></clipPath><clipPath id="25fec6442f"><path d="M 103 190 L 115 190 L 115 216 L 103 216 Z M 103 190 " clip-rule="nonzero"/></clipPath><clipPath id="118eb1d98d"><path d="M 103.523438 191.511719 L 108.378906 190.222656 L 114.707031 214.011719 L 109.855469 215.300781 Z M 103.523438 191.511719 " clip-rule="nonzero"/></clipPath><clipPath id="6f6c33fdf6"><path d="M 0.441406 0.078125 L 11.71875 0.078125 L 11.71875 25.519531 L 0.441406 25.519531 Z M 0.441406 0.078125 " clip-rule="nonzero"/></clipPath><clipPath id="8d2b71a614"><path d="M 0.523438 1.511719 L 5.378906 0.222656 L 11.707031 24.011719 L 6.855469 25.300781 Z M 0.523438 1.511719 " clip-rule="nonzero"/></clipPath><clipPath id="a1dc4baa52"><rect x="0" width="12" y="0" height="26"/></clipPath><clipPath id="845df1dd8a"><path d="M 127.808594 224.347656 L 141.570312 224.347656 L 141.570312 230.648438 L 127.808594 230.648438 Z M 127.808594 224.347656 " clip-rule="nonzero"/></clipPath><clipPath id="758422ddce"><path d="M 127.820312 227.5 L 141.570312 230.648438 L 141.570312 224.347656 Z M 127.820312 227.5 " clip-rule="nonzero"/></clipPath><clipPath id="de013e8f79"><path d="M 0.808594 0.347656 L 14.570312 0.347656 L 14.570312 6.648438 L 0.808594 6.648438 Z M 0.808594 0.347656 " clip-rule="nonzero"/></clipPath><clipPath id="961d02615d"><path d="M 0.820312 3.5 L 14.570312 6.648438 L 14.570312 0.347656 Z M 0.820312 3.5 " clip-rule="nonzero"/></clipPath><clipPath id="171e056e16"><rect x="0" width="15" y="0" height="7"/></clipPath><clipPath id="83ccddb457"><path d="M 106.242188 190.050781 L 141.582031 190.050781 L 141.582031 194.640625 L 106.242188 194.640625 Z M 106.242188 190.050781 " clip-rule="nonzero"/></clipPath><clipPath id="f30d573ea3"><path d="M 0.242188 0.0507812 L 35.582031 0.0507812 L 35.582031 4.640625 L 0.242188 4.640625 Z M 0.242188 0.0507812 " clip-rule="nonzero"/></clipPath><clipPath id="8eb09ac66e"><rect x="0" width="36" y="0" height="5"/></clipPath><clipPath id="cfa94a4acc"><path d="M 141.582031 190.050781 L 176.917969 190.050781 L 176.917969 194.640625 L 141.582031 194.640625 Z M 141.582031 190.050781 " clip-rule="nonzero"/></clipPath><clipPath id="b1381e2526"><path d="M 0.582031 0.0507812 L 35.917969 0.0507812 L 35.917969 4.640625 L 0.582031 4.640625 Z M 0.582031 0.0507812 " clip-rule="nonzero"/></clipPath><clipPath id="cb0bd59a47"><rect x="0" width="36" y="0" height="5"/></clipPath><clipPath id="42bd8bd343"><path d="M 154.753906 151.808594 L 163.75 151.808594 L 163.75 166.78125 L 154.753906 166.78125 Z M 154.753906 151.808594 " clip-rule="nonzero"/></clipPath><clipPath id="94d90f2135"><path d="M 154.753906 151.820312 L 154.753906 166.78125 L 159.25 164.53125 L 163.75 166.78125 L 163.75 151.820312 L 159.25 154.070312 Z M 154.753906 151.820312 " clip-rule="nonzero"/></clipPath><clipPath id="176d6b2eb8"><path d="M 0.753906 0.808594 L 9.75 0.808594 L 9.75 15.78125 L 0.753906 15.78125 Z M 0.753906 0.808594 " clip-rule="nonzero"/></clipPath><clipPath id="66b9c213c5"><path d="M 0.753906 0.820312 L 0.753906 15.78125 L 5.25 13.53125 L 9.75 15.78125 L 9.75 0.820312 L 5.25 3.070312 Z M 0.753906 0.820312 " clip-rule="nonzero"/></clipPath><clipPath id="cfb74fc91c"><rect x="0" width="10" y="0" height="16"/></clipPath><clipPath id="ca408e5c99"><rect x="0" width="20" y="0" height="33"/></clipPath><clipPath id="1368cf6187"><path d="M 0.441406 6 L 14 6 L 14 25 L 0.441406 25 Z M 0.441406 6 " clip-rule="nonzero"/></clipPath><clipPath id="cce05bf591"><rect x="0" width="16" y="0" height="33"/></clipPath><clipPath id="3a495db85f"><rect x="0" width="114" y="0" height="69"/></clipPath></defs><rect x="-37.5" width="450" fill="#ffffff" y="-37.499999" height="449.999989" fill-opacity="1"/><rect x="-37.5" width="450" fill="#272727" y="-37.499999" height="449.999989" fill-opacity="1"/><g clip-path="url(#c54cc46cd2)"><g clip-path="url(#3e3db7b11c)"><g transform="matrix(1, 0, 0, 1, 103, 151)"><g clip-path="url(#ac911a7198)"><g clip-path="url(#87bfb1a257)"><g clip-path="url(#cdd264342f)"><path fill="#f6f6e9" d="M 0.125 0.828125 L 77.035156 0.828125 L 77.035156 81.941406 L 0.125 81.941406 Z M 0.125 0.828125 " fill-opacity="1" fill-rule="nonzero"/></g></g></g></g></g></g><g clip-path="url(#a1b5659409)"><g clip-path="url(#e222d836e5)"><g transform="matrix(1, 0, 0, 1, 106, 155)"><g clip-path="url(#20791698a1)"><g clip-path="url(#05e6d5e26a)"><g clip-path="url(#c6b5450424)"><path fill="#272727" d="M 0.242188 0.109375 L 70.917969 0.109375 L 70.917969 74.652344 L 0.242188 74.652344 Z M 0.242188 0.109375 " fill-opacity="1" fill-rule="nonzero"/></g></g></g></g></g></g><g clip-path="url(#3273b4e7ab)"><g transform="matrix(1, 0, 0, 1, 103, 153)"><g clip-path="url(#075b08d11d)"><g clip-path="url(#59568c3f83)"><path fill="#f6f6e9" d="M 0.523438 0.730469 L 38.582031 0.730469 L 38.582031 39.382812 L 0.523438 39.382812 Z M 0.523438 0.730469 " fill-opacity="1" fill-rule="nonzero"/></g></g></g></g><g clip-path="url(#3a6692f924)"><g clip-path="url(#ca7a75769a)"><g clip-path="url(#52300be863)"><g transform="matrix(1, 0, 0, 1, 105, 186)"><g clip-path="url(#f30a96d81d)"><g clip-path="url(#ca31ac4252)"><g clip-path="url(#83517d2f4a)"><g clip-path="url(#aa86318d33)"><path fill="#f6f6e9" d="M 30.441406 -17.460938 L 51.222656 37.042969 L 15.445312 50.683594 L -5.335938 -3.820312 Z M 30.441406 -17.460938 " fill-opacity="1" fill-rule="nonzero"/></g></g></g></g></g></g></g></g><g clip-path="url(#ad81341f29)"><g transform="matrix(1, 0, 0, 1, 122, 181)"><g clip-path="url(#2ce2e8f26c)"><g clip-path="url(#18e2363be3)"><path fill="#f6f6e9" d="M 0.53125 0.410156 L 19.582031 0.410156 L 19.582031 46.542969 L 0.53125 46.542969 Z M 0.53125 0.410156 " fill-opacity="1" fill-rule="nonzero"/></g></g></g></g><g clip-path="url(#25fec6442f)"><g clip-path="url(#118eb1d98d)"><g transform="matrix(1, 0, 0, 1, 103, 190)"><g clip-path="url(#a1dc4baa52)"><g clip-path="url(#6f6c33fdf6)"><g clip-path="url(#8d2b71a614)"><path fill="#f6f6e9" d="M 0.523438 1.511719 L 5.378906 0.222656 L 11.707031 24.011719 L 6.855469 25.304688 Z M 0.523438 1.511719 " fill-opacity="1" fill-rule="nonzero"/></g></g></g></g></g></g><g clip-path="url(#845df1dd8a)"><g clip-path="url(#758422ddce)"><g transform="matrix(1, 0, 0, 1, 127, 224)"><g clip-path="url(#171e056e16)"><g clip-path="url(#de013e8f79)"><g clip-path="url(#961d02615d)"><path fill="#f6f6e9" d="M 14.570312 0.347656 L 14.570312 6.648438 L 0.808594 6.648438 L 0.808594 0.347656 Z M 14.570312 0.347656 " fill-opacity="1" fill-rule="nonzero"/></g></g></g></g></g></g><g clip-path="url(#83ccddb457)"><g transform="matrix(1, 0, 0, 1, 106, 190)"><g clip-path="url(#8eb09ac66e)"><g clip-path="url(#f30d573ea3)"><path fill="#272727" d="M 0.242188 0.0507812 L 35.578125 0.0507812 L 35.578125 4.640625 L 0.242188 4.640625 Z M 0.242188 0.0507812 " fill-opacity="1" fill-rule="nonzero"/></g></g></g></g><g clip-path="url(#cfa94a4acc)"><g transform="matrix(1, 0, 0, 1, 141, 190)"><g clip-path="url(#cb0bd59a47)"><g clip-path="url(#b1381e2526)"><path fill="#f6f6e9" d="M 0.582031 0.0507812 L 35.917969 0.0507812 L 35.917969 4.640625 L 0.582031 4.640625 Z M 0.582031 0.0507812 " fill-opacity="1" fill-rule="nonzero"/></g></g></g></g><g clip-path="url(#42bd8bd343)"><g clip-path="url(#94d90f2135)"><g transform="matrix(1, 0, 0, 1, 154, 151)"><g clip-path="url(#cfb74fc91c)"><g clip-path="url(#176d6b2eb8)"><g clip-path="url(#66b9c213c5)"><path fill="#f6f6e9" d="M 0.753906 15.78125 L 0.753906 0.808594 L 9.75 0.808594 L 9.75 15.78125 Z M 0.753906 15.78125 " fill-opacity="1" fill-rule="nonzero"/></g></g></g></g></g></g><g transform="matrix(1, 0, 0, 1, 113, 157)"><g clip-path="url(#ca408e5c99)"><g fill="#272727" fill-opacity="1"><g transform="translate(0.108845, 23.899715)"><g><path d="M 2.171875 -16.90625 L 5.796875 -16.90625 L 5.796875 -10.265625 L 13.046875 -10.265625 L 13.046875 -16.90625 L 16.671875 -16.90625 L 16.671875 0 L 13.046875 0 L 13.046875 -6.890625 L 5.796875 -6.890625 L 5.796875 0 L 2.171875 0 Z M 2.171875 -16.90625 "/></g></g></g></g></g><g transform="matrix(1, 0, 0, 1, 115, 194)"><g clip-path="url(#cce05bf591)"><g clip-path="url(#1368cf6187)"><g fill="#272727" fill-opacity="1"><g transform="translate(0.464387, 23.917046)"><g><path d="M 7 0.359375 C 5.90625 0.359375 4.953125 0.222656 4.140625 -0.046875 C 3.328125 -0.316406 2.648438 -0.625 2.109375 -0.96875 C 1.460938 -1.351562 0.921875 -1.796875 0.484375 -2.296875 L 2.90625 -4.703125 C 3.1875 -4.367188 3.53125 -4.066406 3.9375 -3.796875 C 4.269531 -3.566406 4.679688 -3.359375 5.171875 -3.171875 C 5.671875 -2.992188 6.242188 -2.90625 6.890625 -2.90625 C 7.847656 -2.90625 8.546875 -3.085938 8.984375 -3.453125 C 9.429688 -3.828125 9.65625 -4.285156 9.65625 -4.828125 C 9.65625 -5.316406 9.445312 -5.703125 9.03125 -5.984375 C 8.613281 -6.265625 8.085938 -6.515625 7.453125 -6.734375 C 6.828125 -6.960938 6.148438 -7.195312 5.421875 -7.4375 C 4.703125 -7.675781 4.03125 -7.992188 3.40625 -8.390625 C 2.78125 -8.785156 2.253906 -9.289062 1.828125 -9.90625 C 1.410156 -10.53125 1.203125 -11.332031 1.203125 -12.3125 C 1.203125 -12.976562 1.34375 -13.613281 1.625 -14.21875 C 1.90625 -14.820312 2.304688 -15.347656 2.828125 -15.796875 C 3.359375 -16.242188 4.003906 -16.597656 4.765625 -16.859375 C 5.535156 -17.128906 6.40625 -17.265625 7.375 -17.265625 C 8.300781 -17.265625 9.125 -17.144531 9.84375 -16.90625 C 10.5625 -16.664062 11.15625 -16.398438 11.625 -16.109375 C 12.164062 -15.773438 12.640625 -15.398438 13.046875 -14.984375 L 10.625 -12.5625 C 10.375 -12.832031 10.09375 -13.070312 9.78125 -13.28125 C 9.507812 -13.457031 9.179688 -13.625 8.796875 -13.78125 C 8.410156 -13.9375 7.972656 -14.015625 7.484375 -14.015625 C 6.566406 -14.015625 5.914062 -13.851562 5.53125 -13.53125 C 5.144531 -13.207031 4.953125 -12.800781 4.953125 -12.3125 C 4.953125 -11.832031 5.160156 -11.453125 5.578125 -11.171875 C 5.992188 -10.890625 6.515625 -10.632812 7.140625 -10.40625 C 7.773438 -10.1875 8.453125 -9.953125 9.171875 -9.703125 C 9.898438 -9.460938 10.578125 -9.144531 11.203125 -8.75 C 11.835938 -8.363281 12.363281 -7.859375 12.78125 -7.234375 C 13.195312 -6.617188 13.40625 -5.816406 13.40625 -4.828125 C 13.40625 -4.140625 13.257812 -3.476562 12.96875 -2.84375 C 12.675781 -2.21875 12.253906 -1.664062 11.703125 -1.1875 C 11.148438 -0.71875 10.476562 -0.34375 9.6875 -0.0625 C 8.894531 0.21875 8 0.359375 7 0.359375 Z M 7 0.359375 "/></g></g></g></g></g></g><g transform="matrix(1, 0, 0, 1, 187, 155)"><g clip-path="url(#3a495db85f)"><g fill="#f6f6e9" fill-opacity="1"><g transform="translate(0.616257, 29.126281)"><g><path d="M 2.71875 -21.09375 L 7.234375 -21.09375 L 7.234375 -12.8125 L 16.28125 -12.8125 L 16.28125 -21.09375 L 20.796875 -21.09375 L 20.796875 0 L 16.28125 0 L 16.28125 -8.59375 L 7.234375 -8.59375 L 7.234375 0 L 2.71875 0 Z M 2.71875 -21.09375 "/></g></g></g><g fill="#f6f6e9" fill-opacity="1"><g transform="translate(22.999516, 29.126281)"><g><path d="M 5.734375 0.296875 C 5.046875 0.296875 4.425781 0.191406 3.875 -0.015625 C 3.320312 -0.222656 2.847656 -0.519531 2.453125 -0.90625 C 2.066406 -1.289062 1.757812 -1.738281 1.53125 -2.25 C 1.3125 -2.757812 1.203125 -3.316406 1.203125 -3.921875 C 1.203125 -5.128906 1.585938 -6.15625 2.359375 -7 C 3.140625 -7.851562 4.210938 -8.40625 5.578125 -8.65625 L 10.25 -9.5 C 10.164062 -10.019531 9.90625 -10.472656 9.46875 -10.859375 C 9.039062 -11.253906 8.445312 -11.453125 7.6875 -11.453125 C 7.164062 -11.453125 6.695312 -11.363281 6.28125 -11.1875 C 5.875 -11.019531 5.53125 -10.828125 5.25 -10.609375 C 4.90625 -10.367188 4.613281 -10.097656 4.375 -9.796875 L 1.953125 -12.203125 C 2.378906 -12.722656 2.894531 -13.195312 3.5 -13.625 C 4.019531 -13.988281 4.648438 -14.320312 5.390625 -14.625 C 6.140625 -14.925781 7.003906 -15.078125 7.984375 -15.078125 C 8.929688 -15.078125 9.789062 -14.925781 10.5625 -14.625 C 11.332031 -14.320312 12 -13.898438 12.5625 -13.359375 C 13.125 -12.828125 13.554688 -12.203125 13.859375 -11.484375 C 14.160156 -10.773438 14.3125 -10.007812 14.3125 -9.1875 L 14.3125 0 L 10.25 0 L 10.25 -1.8125 L 10.09375 -1.8125 C 9.769531 -1.40625 9.398438 -1.050781 8.984375 -0.75 C 8.617188 -0.46875 8.160156 -0.222656 7.609375 -0.015625 C 7.054688 0.191406 6.429688 0.296875 5.734375 0.296875 Z M 7.078125 -3.015625 C 7.984375 -3.015625 8.738281 -3.320312 9.34375 -3.9375 C 9.945312 -4.550781 10.25 -5.347656 10.25 -6.328125 L 10.25 -6.625 L 6.9375 -6.03125 C 6.414062 -5.925781 6.007812 -5.742188 5.71875 -5.484375 C 5.425781 -5.222656 5.28125 -4.898438 5.28125 -4.515625 C 5.28125 -4.054688 5.425781 -3.691406 5.71875 -3.421875 C 6.019531 -3.148438 6.472656 -3.015625 7.078125 -3.015625 Z M 7.078125 -3.015625 "/></g></g></g><g fill="#f6f6e9" fill-opacity="1"><g transform="translate(38.152446, 29.126281)"><g><path d="M 1.953125 -14.765625 L 6.03125 -14.765625 L 6.03125 -12.65625 L 6.171875 -12.65625 C 6.492188 -13.101562 6.867188 -13.503906 7.296875 -13.859375 C 7.660156 -14.160156 8.113281 -14.4375 8.65625 -14.6875 C 9.195312 -14.945312 9.828125 -15.078125 10.546875 -15.078125 C 11.296875 -15.078125 12 -14.929688 12.65625 -14.640625 C 13.320312 -14.347656 13.898438 -13.929688 14.390625 -13.390625 C 14.878906 -12.859375 15.265625 -12.210938 15.546875 -11.453125 C 15.828125 -10.691406 15.96875 -9.835938 15.96875 -8.890625 L 15.96875 0 L 11.90625 0 L 11.90625 -8.28125 C 11.90625 -9.1875 11.660156 -9.890625 11.171875 -10.390625 C 10.691406 -10.898438 10.03125 -11.15625 9.1875 -11.15625 C 8.289062 -11.15625 7.539062 -10.847656 6.9375 -10.234375 C 6.332031 -9.617188 6.03125 -8.820312 6.03125 -7.84375 L 6.03125 0 L 1.953125 0 Z M 1.953125 -14.765625 "/></g></g></g><g fill="#f6f6e9" fill-opacity="1"><g transform="translate(54.962331, 29.126281)"><g><path d="M 8.890625 0.296875 C 7.804688 0.296875 6.785156 0.0976562 5.828125 -0.296875 C 4.878906 -0.703125 4.046875 -1.253906 3.328125 -1.953125 C 2.617188 -2.660156 2.0625 -3.472656 1.65625 -4.390625 C 1.257812 -5.316406 1.0625 -6.316406 1.0625 -7.390625 C 1.0625 -8.429688 1.257812 -9.414062 1.65625 -10.34375 C 2.0625 -11.28125 2.617188 -12.097656 3.328125 -12.796875 C 4.046875 -13.503906 4.878906 -14.0625 5.828125 -14.46875 C 6.785156 -14.875 7.804688 -15.078125 8.890625 -15.078125 C 9.972656 -15.078125 10.988281 -14.875 11.9375 -14.46875 C 12.894531 -14.0625 13.726562 -13.503906 14.4375 -12.796875 C 15.15625 -12.097656 15.71875 -11.28125 16.125 -10.34375 C 16.53125 -9.414062 16.734375 -8.429688 16.734375 -7.390625 C 16.734375 -6.316406 16.53125 -5.316406 16.125 -4.390625 C 15.71875 -3.472656 15.15625 -2.660156 14.4375 -1.953125 C 13.726562 -1.253906 12.894531 -0.703125 11.9375 -0.296875 C 10.988281 0.0976562 9.972656 0.296875 8.890625 0.296875 Z M 8.890625 -3.46875 C 9.410156 -3.46875 9.898438 -3.566406 10.359375 -3.765625 C 10.828125 -3.960938 11.234375 -4.234375 11.578125 -4.578125 C 11.921875 -4.921875 12.1875 -5.332031 12.375 -5.8125 C 12.5625 -6.300781 12.65625 -6.828125 12.65625 -7.390625 C 12.65625 -7.953125 12.5625 -8.472656 12.375 -8.953125 C 12.1875 -9.429688 11.921875 -9.84375 11.578125 -10.1875 C 11.234375 -10.53125 10.828125 -10.800781 10.359375 -11 C 9.898438 -11.195312 9.410156 -11.296875 8.890625 -11.296875 C 8.367188 -11.296875 7.875 -11.195312 7.40625 -11 C 6.945312 -10.800781 6.546875 -10.53125 6.203125 -10.1875 C 5.867188 -9.84375 5.601562 -9.429688 5.40625 -8.953125 C 5.21875 -8.472656 5.125 -7.953125 5.125 -7.390625 C 5.125 -6.828125 5.21875 -6.300781 5.40625 -5.8125 C 5.601562 -5.332031 5.867188 -4.921875 6.203125 -4.578125 C 6.546875 -4.234375 6.945312 -3.960938 7.40625 -3.765625 C 7.875 -3.566406 8.367188 -3.46875 8.890625 -3.46875 Z M 8.890625 -3.46875 "/></g></g></g><g fill="#f6f6e9" fill-opacity="1"><g transform="translate(71.621581, 29.126281)"><g><path d="M -0.15625 -14.765625 L 4.21875 -14.765625 L 7.625 -4.828125 L 7.75 -4.828125 L 11.15625 -14.765625 L 15.515625 -14.765625 L 9.953125 0 L 5.421875 0 Z M -0.15625 -14.765625 "/></g></g></g><g fill="#f6f6e9" fill-opacity="1"><g transform="translate(85.870721, 29.126281)"><g><path d="M 8.890625 0.296875 C 7.804688 0.296875 6.785156 0.0976562 5.828125 -0.296875 C 4.878906 -0.703125 4.046875 -1.253906 3.328125 -1.953125 C 2.617188 -2.660156 2.0625 -3.472656 1.65625 -4.390625 C 1.257812 -5.316406 1.0625 -6.316406 1.0625 -7.390625 C 1.0625 -8.429688 1.257812 -9.414062 1.65625 -10.34375 C 2.0625 -11.28125 2.613281 -12.097656 3.3125 -12.796875 C 4.019531 -13.503906 4.832031 -14.0625 5.75 -14.46875 C 6.675781 -14.875 7.671875 -15.078125 8.734375 -15.078125 C 9.765625 -15.078125 10.722656 -14.878906 11.609375 -14.484375 C 12.503906 -14.085938 13.285156 -13.554688 13.953125 -12.890625 C 14.617188 -12.234375 15.144531 -11.457031 15.53125 -10.5625 C 15.925781 -9.664062 16.125 -8.707031 16.125 -7.6875 C 16.125 -7.40625 16.113281 -7.15625 16.09375 -6.9375 C 16.070312 -6.726562 16.050781 -6.546875 16.03125 -6.390625 C 16.007812 -6.191406 15.988281 -6.019531 15.96875 -5.875 L 5.28125 -5.875 C 5.5 -5.195312 5.921875 -4.597656 6.546875 -4.078125 C 7.179688 -3.566406 8.0625 -3.3125 9.1875 -3.3125 C 9.832031 -3.3125 10.394531 -3.390625 10.875 -3.546875 C 11.363281 -3.710938 11.773438 -3.90625 12.109375 -4.125 C 12.492188 -4.363281 12.828125 -4.644531 13.109375 -4.96875 L 15.21875 -2.109375 C 14.78125 -1.671875 14.238281 -1.269531 13.59375 -0.90625 C 13.050781 -0.601562 12.382812 -0.328125 11.59375 -0.078125 C 10.8125 0.171875 9.910156 0.296875 8.890625 0.296875 Z M 11.90625 -8.890625 C 11.6875 -9.578125 11.289062 -10.175781 10.71875 -10.6875 C 10.144531 -11.195312 9.4375 -11.453125 8.59375 -11.453125 C 7.75 -11.453125 7.039062 -11.195312 6.46875 -10.6875 C 5.894531 -10.175781 5.5 -9.578125 5.28125 -8.890625 Z M 11.90625 -8.890625 "/></g></g></g><g fill="#f6f6e9" fill-opacity="1"><g transform="translate(101.92744, 29.126281)"><g><path d="M 1.953125 -14.765625 L 6.03125 -14.765625 L 6.03125 -12.65625 L 6.171875 -12.65625 C 6.492188 -13.101562 6.867188 -13.503906 7.296875 -13.859375 C 7.660156 -14.160156 8.113281 -14.4375 8.65625 -14.6875 C 9.195312 -14.945312 9.828125 -15.078125 10.546875 -15.078125 L 10.84375 -15.078125 L 10.84375 -10.703125 C 10.75 -10.722656 10.640625 -10.742188 10.515625 -10.765625 C 10.398438 -10.785156 10.253906 -10.800781 10.078125 -10.8125 C 9.910156 -10.832031 9.71875 -10.84375 9.5 -10.84375 C 8.507812 -10.84375 7.679688 -10.488281 7.015625 -9.78125 C 6.359375 -9.082031 6.03125 -8.132812 6.03125 -6.9375 L 6.03125 0 L 1.953125 0 Z M 1.953125 -14.765625 "/></g></g></g><g fill="#f6f6e9" fill-opacity="1"><g transform="translate(0.616257, 58.60773)"><g><path d="M 8.734375 0.453125 C 7.367188 0.453125 6.175781 0.28125 5.15625 -0.0625 C 4.144531 -0.40625 3.300781 -0.785156 2.625 -1.203125 C 1.820312 -1.679688 1.148438 -2.234375 0.609375 -2.859375 L 3.609375 -5.875 C 3.972656 -5.457031 4.40625 -5.078125 4.90625 -4.734375 C 5.332031 -4.453125 5.851562 -4.191406 6.46875 -3.953125 C 7.082031 -3.722656 7.789062 -3.609375 8.59375 -3.609375 C 9.800781 -3.609375 10.679688 -3.835938 11.234375 -4.296875 C 11.785156 -4.765625 12.0625 -5.34375 12.0625 -6.03125 C 12.0625 -6.632812 11.796875 -7.109375 11.265625 -7.453125 C 10.742188 -7.804688 10.09375 -8.125 9.3125 -8.40625 C 8.53125 -8.6875 7.6875 -8.976562 6.78125 -9.28125 C 5.875 -9.582031 5.03125 -9.976562 4.25 -10.46875 C 3.46875 -10.96875 2.8125 -11.601562 2.28125 -12.375 C 1.757812 -13.144531 1.5 -14.144531 1.5 -15.375 C 1.5 -16.195312 1.675781 -16.984375 2.03125 -17.734375 C 2.382812 -18.492188 2.882812 -19.15625 3.53125 -19.71875 C 4.1875 -20.28125 4.992188 -20.722656 5.953125 -21.046875 C 6.910156 -21.378906 7.988281 -21.546875 9.1875 -21.546875 C 10.351562 -21.546875 11.382812 -21.394531 12.28125 -21.09375 C 13.175781 -20.789062 13.914062 -20.460938 14.5 -20.109375 C 15.175781 -19.679688 15.769531 -19.207031 16.28125 -18.6875 L 13.265625 -15.671875 C 12.941406 -16.015625 12.585938 -16.316406 12.203125 -16.578125 C 11.859375 -16.796875 11.445312 -17 10.96875 -17.1875 C 10.488281 -17.382812 9.945312 -17.484375 9.34375 -17.484375 C 8.195312 -17.484375 7.378906 -17.28125 6.890625 -16.875 C 6.410156 -16.476562 6.171875 -15.976562 6.171875 -15.375 C 6.171875 -14.769531 6.429688 -14.289062 6.953125 -13.9375 C 7.484375 -13.582031 8.140625 -13.265625 8.921875 -12.984375 C 9.703125 -12.703125 10.546875 -12.410156 11.453125 -12.109375 C 12.359375 -11.816406 13.203125 -11.421875 13.984375 -10.921875 C 14.765625 -10.429688 15.414062 -9.796875 15.9375 -9.015625 C 16.46875 -8.242188 16.734375 -7.25 16.734375 -6.03125 C 16.734375 -5.164062 16.550781 -4.335938 16.1875 -3.546875 C 15.820312 -2.765625 15.289062 -2.078125 14.59375 -1.484375 C 13.90625 -0.898438 13.066406 -0.429688 12.078125 -0.078125 C 11.097656 0.273438 9.984375 0.453125 8.734375 0.453125 Z M 8.734375 0.453125 "/></g></g></g><g fill="#f6f6e9" fill-opacity="1"><g transform="translate(17.124871, 58.60773)"><g><path d="M 8.890625 0.296875 C 7.804688 0.296875 6.785156 0.0976562 5.828125 -0.296875 C 4.878906 -0.703125 4.046875 -1.253906 3.328125 -1.953125 C 2.617188 -2.660156 2.0625 -3.472656 1.65625 -4.390625 C 1.257812 -5.316406 1.0625 -6.316406 1.0625 -7.390625 C 1.0625 -8.429688 1.257812 -9.414062 1.65625 -10.34375 C 2.0625 -11.28125 2.617188 -12.097656 3.328125 -12.796875 C 4.046875 -13.503906 4.878906 -14.0625 5.828125 -14.46875 C 6.785156 -14.875 7.804688 -15.078125 8.890625 -15.078125 C 9.953125 -15.078125 10.863281 -14.921875 11.625 -14.609375 C 12.394531 -14.296875 13.039062 -13.945312 13.5625 -13.5625 C 14.164062 -13.125 14.671875 -12.625 15.078125 -12.0625 L 12.515625 -9.5 C 12.234375 -9.832031 11.910156 -10.132812 11.546875 -10.40625 C 11.222656 -10.625 10.835938 -10.828125 10.390625 -11.015625 C 9.953125 -11.203125 9.453125 -11.296875 8.890625 -11.296875 C 8.367188 -11.296875 7.875 -11.195312 7.40625 -11 C 6.945312 -10.800781 6.546875 -10.53125 6.203125 -10.1875 C 5.867188 -9.84375 5.601562 -9.429688 5.40625 -8.953125 C 5.21875 -8.472656 5.125 -7.953125 5.125 -7.390625 C 5.125 -6.828125 5.21875 -6.300781 5.40625 -5.8125 C 5.601562 -5.332031 5.867188 -4.921875 6.203125 -4.578125 C 6.546875 -4.234375 6.945312 -3.960938 7.40625 -3.765625 C 7.875 -3.566406 8.367188 -3.46875 8.890625 -3.46875 C 9.453125 -3.46875 9.953125 -3.5625 10.390625 -3.75 C 10.835938 -3.9375 11.222656 -4.144531 11.546875 -4.375 C 11.910156 -4.632812 12.234375 -4.9375 12.515625 -5.28125 L 15.078125 -2.71875 C 14.671875 -2.15625 14.164062 -1.648438 13.5625 -1.203125 C 13.039062 -0.828125 12.394531 -0.484375 11.625 -0.171875 C 10.863281 0.140625 9.953125 0.296875 8.890625 0.296875 Z M 8.890625 0.296875 "/></g></g></g><g fill="#f6f6e9" fill-opacity="1"><g transform="translate(31.675282, 58.60773)"><g><path d="M 2.109375 -21.09375 L 6.171875 -21.09375 L 6.171875 -12.65625 L 6.328125 -12.65625 C 6.648438 -13.101562 7.019531 -13.503906 7.4375 -13.859375 C 7.800781 -14.160156 8.253906 -14.4375 8.796875 -14.6875 C 9.335938 -14.945312 9.972656 -15.078125 10.703125 -15.078125 C 11.441406 -15.078125 12.140625 -14.929688 12.796875 -14.640625 C 13.460938 -14.347656 14.039062 -13.929688 14.53125 -13.390625 C 15.03125 -12.859375 15.421875 -12.210938 15.703125 -11.453125 C 15.984375 -10.691406 16.125 -9.835938 16.125 -8.890625 L 16.125 0 L 12.0625 0 L 12.0625 -8.28125 C 12.0625 -9.1875 11.816406 -9.890625 11.328125 -10.390625 C 10.847656 -10.898438 10.1875 -11.15625 9.34375 -11.15625 C 8.4375 -11.15625 7.679688 -10.847656 7.078125 -10.234375 C 6.472656 -9.617188 6.171875 -8.820312 6.171875 -7.84375 L 6.171875 0 L 2.109375 0 Z M 2.109375 -21.09375 "/></g></g></g><g fill="#f6f6e9" fill-opacity="1"><g transform="translate(48.635804, 58.60773)"><g><path d="M 8.890625 0.296875 C 7.804688 0.296875 6.785156 0.0976562 5.828125 -0.296875 C 4.878906 -0.703125 4.046875 -1.253906 3.328125 -1.953125 C 2.617188 -2.660156 2.0625 -3.472656 1.65625 -4.390625 C 1.257812 -5.316406 1.0625 -6.316406 1.0625 -7.390625 C 1.0625 -8.429688 1.257812 -9.414062 1.65625 -10.34375 C 2.0625 -11.28125 2.617188 -12.097656 3.328125 -12.796875 C 4.046875 -13.503906 4.878906 -14.0625 5.828125 -14.46875 C 6.785156 -14.875 7.804688 -15.078125 8.890625 -15.078125 C 9.972656 -15.078125 10.988281 -14.875 11.9375 -14.46875 C 12.894531 -14.0625 13.726562 -13.503906 14.4375 -12.796875 C 15.15625 -12.097656 15.71875 -11.28125 16.125 -10.34375 C 16.53125 -9.414062 16.734375 -8.429688 16.734375 -7.390625 C 16.734375 -6.316406 16.53125 -5.316406 16.125 -4.390625 C 15.71875 -3.472656 15.15625 -2.660156 14.4375 -1.953125 C 13.726562 -1.253906 12.894531 -0.703125 11.9375 -0.296875 C 10.988281 0.0976562 9.972656 0.296875 8.890625 0.296875 Z M 8.890625 -3.46875 C 9.410156 -3.46875 9.898438 -3.566406 10.359375 -3.765625 C 10.828125 -3.960938 11.234375 -4.234375 11.578125 -4.578125 C 11.921875 -4.921875 12.1875 -5.332031 12.375 -5.8125 C 12.5625 -6.300781 12.65625 -6.828125 12.65625 -7.390625 C 12.65625 -7.953125 12.5625 -8.472656 12.375 -8.953125 C 12.1875 -9.429688 11.921875 -9.84375 11.578125 -10.1875 C 11.234375 -10.53125 10.828125 -10.800781 10.359375 -11 C 9.898438 -11.195312 9.410156 -11.296875 8.890625 -11.296875 C 8.367188 -11.296875 7.875 -11.195312 7.40625 -11 C 6.945312 -10.800781 6.546875 -10.53125 6.203125 -10.1875 C 5.867188 -9.84375 5.601562 -9.429688 5.40625 -8.953125 C 5.21875 -8.472656 5.125 -7.953125 5.125 -7.390625 C 5.125 -6.828125 5.21875 -6.300781 5.40625 -5.8125 C 5.601562 -5.332031 5.867188 -4.921875 6.203125 -4.578125 C 6.546875 -4.234375 6.945312 -3.960938 7.40625 -3.765625 C 7.875 -3.566406 8.367188 -3.46875 8.890625 -3.46875 Z M 8.890625 -3.46875 "/></g></g></g><g fill="#f6f6e9" fill-opacity="1"><g transform="translate(65.295054, 58.60773)"><g><path d="M 8.890625 0.296875 C 7.804688 0.296875 6.785156 0.0976562 5.828125 -0.296875 C 4.878906 -0.703125 4.046875 -1.253906 3.328125 -1.953125 C 2.617188 -2.660156 2.0625 -3.472656 1.65625 -4.390625 C 1.257812 -5.316406 1.0625 -6.316406 1.0625 -7.390625 C 1.0625 -8.429688 1.257812 -9.414062 1.65625 -10.34375 C 2.0625 -11.28125 2.617188 -12.097656 3.328125 -12.796875 C 4.046875 -13.503906 4.878906 -14.0625 5.828125 -14.46875 C 6.785156 -14.875 7.804688 -15.078125 8.890625 -15.078125 C 9.972656 -15.078125 10.988281 -14.875 11.9375 -14.46875 C 12.894531 -14.0625 13.726562 -13.503906 14.4375 -12.796875 C 15.15625 -12.097656 15.71875 -11.28125 16.125 -10.34375 C 16.53125 -9.414062 16.734375 -8.429688 16.734375 -7.390625 C 16.734375 -6.316406 16.53125 -5.316406 16.125 -4.390625 C 15.71875 -3.472656 15.15625 -2.660156 14.4375 -1.953125 C 13.726562 -1.253906 12.894531 -0.703125 11.9375 -0.296875 C 10.988281 0.0976562 9.972656 0.296875 8.890625 0.296875 Z M 8.890625 -3.46875 C 9.410156 -3.46875 9.898438 -3.566406 10.359375 -3.765625 C 10.828125 -3.960938 11.234375 -4.234375 11.578125 -4.578125 C 11.921875 -4.921875 12.1875 -5.332031 12.375 -5.8125 C 12.5625 -6.300781 12.65625 -6.828125 12.65625 -7.390625 C 12.65625 -7.953125 12.5625 -8.472656 12.375 -8.953125 C 12.1875 -9.429688 11.921875 -9.84375 11.578125 -10.1875 C 11.234375 -10.53125 10.828125 -10.800781 10.359375 -11 C 9.898438 -11.195312 9.410156 -11.296875 8.890625 -11.296875 C 8.367188 -11.296875 7.875 -11.195312 7.40625 -11 C 6.945312 -10.800781 6.546875 -10.53125 6.203125 -10.1875 C 5.867188 -9.84375 5.601562 -9.429688 5.40625 -8.953125 C 5.21875 -8.472656 5.125 -7.953125 5.125 -7.390625 C 5.125 -6.828125 5.21875 -6.300781 5.40625 -5.8125 C 5.601562 -5.332031 5.867188 -4.921875 6.203125 -4.578125 C 6.546875 -4.234375 6.945312 -3.960938 7.40625 -3.765625 C 7.875 -3.566406 8.367188 -3.46875 8.890625 -3.46875 Z M 8.890625 -3.46875 "/></g></g></g><g fill="#f6f6e9" fill-opacity="1"><g transform="translate(81.954303, 58.60773)"><g><path d="M 2.109375 -21.09375 L 6.171875 -21.09375 L 6.171875 0 L 2.109375 0 Z M 2.109375 -21.09375 "/></g></g></g></g></g></svg>