<svg xmlns="http://www.w3.org/2000/svg" xmlns:xlink="http://www.w3.org/1999/xlink" width="500" zoomAndPan="magnify" viewBox="0 0 375 374.999991" height="500" preserveAspectRatio="xMidYMid meet" version="1.0"><defs><g/></defs><g fill="#0a0a0a" fill-opacity="1"><g transform="translate(65.780127, 186.452712)"><g><path d="M 2.484375 -81.671875 L 49.203125 -81.671875 C 53.910156 -81.671875 58.101562 -80.78125 61.78125 -79 C 65.457031 -77.226562 68.660156 -74.816406 71.390625 -71.765625 C 75.765625 -67.796875 79.046875 -62.753906 81.234375 -56.640625 C 83.429688 -50.523438 84.53125 -44.160156 84.53125 -37.546875 C 84.53125 -32.347656 83.847656 -27.289062 82.484375 -22.375 C 81.117188 -17.457031 79.070312 -13.035156 76.34375 -9.109375 C 73.613281 -5.179688 70.179688 -2.039062 66.046875 0.3125 C 61.921875 2.664062 57.132812 3.84375 51.6875 3.84375 L 37.921875 3.84375 L 37.921875 1.359375 L 35.453125 1.359375 L 35.453125 -7.9375 C 34.128906 -4.707031 32.164062 -1.9375 29.5625 0.375 C 26.957031 2.6875 23.132812 3.84375 18.09375 3.84375 L 4.953125 3.84375 L 4.953125 1.359375 L 2.484375 1.359375 Z M 3.71875 0.125 L 15.609375 0.125 C 19.410156 0.125 22.46875 -0.617188 24.78125 -2.109375 C 27.09375 -3.597656 28.910156 -5.5 30.234375 -7.8125 C 31.554688 -10.125 32.523438 -12.582031 33.140625 -15.1875 C 33.765625 -17.789062 34.328125 -20.25 34.828125 -22.5625 L 36.6875 -22.5625 L 36.6875 0.125 L 49.203125 0.125 C 55.234375 0.125 60.394531 -1.316406 64.6875 -4.203125 C 68.988281 -7.097656 72.441406 -10.941406 75.046875 -15.734375 C 77.648438 -20.523438 79.363281 -25.789062 80.1875 -31.53125 C 81.007812 -37.28125 80.988281 -43.023438 80.125 -48.765625 C 79.257812 -54.515625 77.546875 -59.785156 74.984375 -64.578125 C 72.421875 -69.367188 68.988281 -73.207031 64.6875 -76.09375 C 60.394531 -78.988281 55.234375 -80.4375 49.203125 -80.4375 L 3.71875 -80.4375 Z M 34.328125 -76.84375 C 38.128906 -76.59375 41.25 -75.332031 43.6875 -73.0625 C 46.125 -70.789062 47.941406 -67.957031 49.140625 -64.5625 C 50.335938 -61.175781 50.914062 -57.625 50.875 -53.90625 C 50.832031 -50.1875 50.171875 -46.675781 48.890625 -43.375 C 47.609375 -40.070312 45.75 -37.363281 43.3125 -35.25 C 40.875 -33.144531 37.835938 -32.09375 34.203125 -32.09375 Z M 37.921875 -33.71875 C 40.484375 -34.457031 42.628906 -35.878906 44.359375 -37.984375 C 46.097656 -40.085938 47.398438 -42.566406 48.265625 -45.421875 C 49.140625 -48.273438 49.578125 -51.226562 49.578125 -54.28125 C 49.578125 -57.257812 49.203125 -60.148438 48.453125 -62.953125 C 47.710938 -65.765625 46.515625 -68.203125 44.859375 -70.265625 C 43.046875 -71.671875 40.773438 -72.582031 38.046875 -73 Z M 37.921875 -33.71875 "/></g></g></g><g fill="#0a0a0a" fill-opacity="1"><g transform="translate(150.793244, 186.452712)"><g><path d="M 43.125 -83.65625 C 49.40625 -83.65625 55.289062 -82.394531 60.78125 -79.875 C 66.28125 -77.351562 70.972656 -73.945312 74.859375 -69.65625 C 79.148438 -65.769531 82.554688 -61.078125 85.078125 -55.578125 C 87.597656 -50.085938 88.859375 -44.203125 88.859375 -37.921875 C 88.859375 -31.972656 87.742188 -26.375 85.515625 -21.125 C 83.285156 -15.882812 80.1875 -11.257812 76.21875 -7.25 C 72.25 -3.238281 67.640625 -0.117188 62.390625 2.109375 C 57.148438 4.335938 51.554688 5.453125 45.609375 5.453125 C 39.328125 5.453125 33.414062 4.191406 27.875 1.671875 C 22.34375 -0.847656 17.597656 -4.253906 13.640625 -8.546875 C 9.335938 -12.515625 5.945312 -17.242188 3.46875 -22.734375 C 0.988281 -28.234375 -0.25 -34.125 -0.25 -40.40625 C -0.25 -46.351562 0.863281 -51.945312 3.09375 -57.1875 C 5.320312 -62.4375 8.421875 -67.046875 12.390625 -71.015625 C 16.359375 -74.984375 20.960938 -78.082031 26.203125 -80.3125 C 31.453125 -82.539062 37.09375 -83.65625 43.125 -83.65625 Z M 43.125 -82.421875 C 37.34375 -82.421875 31.890625 -81.320312 26.765625 -79.125 C 21.648438 -76.9375 17.171875 -73.921875 13.328125 -70.078125 C 9.484375 -66.242188 6.460938 -61.785156 4.265625 -56.703125 C 2.078125 -51.617188 0.984375 -46.1875 0.984375 -40.40625 C 0.984375 -34.625 2.078125 -29.191406 4.265625 -24.109375 C 6.460938 -19.023438 9.484375 -14.539062 13.328125 -10.65625 C 17.171875 -6.769531 21.648438 -3.734375 26.765625 -1.546875 C 31.890625 0.640625 37.34375 1.734375 43.125 1.734375 C 48.914062 1.734375 54.347656 0.640625 59.421875 -1.546875 C 64.503906 -3.734375 68.96875 -6.769531 72.8125 -10.65625 C 76.65625 -14.539062 79.671875 -19.023438 81.859375 -24.109375 C 84.046875 -29.191406 85.140625 -34.625 85.140625 -40.40625 C 85.140625 -46.1875 84.046875 -51.617188 81.859375 -56.703125 C 79.671875 -61.785156 76.65625 -66.242188 72.8125 -70.078125 C 68.96875 -73.921875 64.503906 -76.9375 59.421875 -79.125 C 54.347656 -81.320312 48.914062 -82.421875 43.125 -82.421875 Z M 41.015625 -47.21875 C 43.492188 -47.21875 45.625 -46.328125 47.40625 -44.546875 C 49.1875 -42.773438 50.078125 -40.648438 50.078125 -38.171875 C 50.078125 -35.609375 49.1875 -33.457031 47.40625 -31.71875 C 45.625 -29.988281 43.492188 -29.125 41.015625 -29.125 C 36.304688 -29.125 32.300781 -30.132812 29 -32.15625 C 25.695312 -34.1875 23.132812 -36.832031 21.3125 -40.09375 C 19.5 -43.351562 18.363281 -46.882812 17.90625 -50.6875 C 17.457031 -54.488281 17.769531 -58.226562 18.84375 -61.90625 C 19.914062 -65.582031 21.691406 -68.820312 24.171875 -71.625 C 26.648438 -74.4375 29.867188 -76.460938 33.828125 -77.703125 L 33.828125 -43.5 C 35.566406 -45.976562 37.960938 -47.21875 41.015625 -47.21875 Z M 43.5 -43.5 C 40.851562 -43.5 38.046875 -41.351562 35.078125 -37.0625 L 35.078125 -42.640625 C 34.242188 -41.804688 33.414062 -40.769531 32.59375 -39.53125 L 32.59375 -72.375 C 28.789062 -70.3125 25.976562 -67.359375 24.15625 -63.515625 C 22.34375 -59.671875 21.4375 -55.644531 21.4375 -51.4375 C 21.4375 -48.457031 21.910156 -45.539062 22.859375 -42.6875 C 23.816406 -39.84375 25.242188 -37.304688 27.140625 -35.078125 C 28.878906 -33.671875 30.90625 -32.53125 33.21875 -31.65625 C 35.53125 -30.789062 38.128906 -30.359375 41.015625 -30.359375 C 43.171875 -30.359375 45.007812 -31.125 46.53125 -32.65625 C 48.0625 -34.1875 48.828125 -36.023438 48.828125 -38.171875 C 48.828125 -39.660156 48.414062 -41.023438 47.59375 -42.265625 C 46.351562 -43.085938 44.988281 -43.5 43.5 -43.5 Z M 43.5 -43.5 "/></g></g></g><g fill="#0a0a0a" fill-opacity="1"><g transform="translate(238.160914, 186.452712)"><g><path d="M 37.671875 3.71875 L 4.34375 3.71875 L 4.34375 1.234375 L 1.859375 1.234375 L 1.859375 -81.796875 L 35.203125 -81.796875 L 35.078125 -79.3125 L 37.671875 -79.3125 L 37.421875 -68.90625 C 39.078125 -72.789062 41.453125 -76.015625 44.546875 -78.578125 C 47.648438 -81.140625 51.722656 -82.335938 56.765625 -82.171875 C 60.816406 -82.085938 64.179688 -81.425781 66.859375 -80.1875 C 69.546875 -78.945312 71.757812 -77.253906 73.5 -75.109375 C 76.96875 -72.296875 79.257812 -68.492188 80.375 -63.703125 C 81.488281 -58.910156 82.046875 -53.785156 82.046875 -48.328125 L 82.046875 3.71875 L 49.328125 3.71875 L 49.328125 1.234375 L 46.84375 1.234375 L 46.84375 -39.53125 C 46.84375 -40.445312 46.738281 -41.253906 46.53125 -41.953125 C 46.332031 -42.648438 46.066406 -43.289062 45.734375 -43.875 C 44.910156 -44.289062 44.125 -44.5 43.375 -44.5 C 41.96875 -44.5 40.664062 -43.898438 39.46875 -42.703125 C 38.269531 -41.503906 37.671875 -39.707031 37.671875 -37.3125 Z M 33.953125 -39.78125 C 33.953125 -42.675781 34.65625 -44.820312 36.0625 -46.21875 C 37.46875 -47.625 39.117188 -48.304688 41.015625 -48.265625 C 42.921875 -48.234375 44.578125 -47.492188 45.984375 -46.046875 C 47.390625 -44.597656 48.09375 -42.425781 48.09375 -39.53125 L 48.09375 0 L 78.328125 0 L 78.328125 -50.8125 C 78.328125 -54.78125 78.035156 -58.539062 77.453125 -62.09375 C 76.878906 -65.644531 75.847656 -68.820312 74.359375 -71.625 C 72.867188 -74.4375 70.695312 -76.671875 67.84375 -78.328125 C 65 -79.984375 61.304688 -80.851562 56.765625 -80.9375 C 52.796875 -81.019531 49.445312 -80.253906 46.71875 -78.640625 C 44 -77.023438 41.832031 -74.832031 40.21875 -72.0625 C 38.601562 -69.300781 37.441406 -66.203125 36.734375 -62.765625 C 36.035156 -59.335938 35.644531 -55.847656 35.5625 -52.296875 L 33.953125 -52.296875 L 33.953125 -80.5625 L 3.09375 -80.5625 L 3.09375 0 L 33.953125 0 Z M 33.953125 -39.78125 "/></g></g></g><g fill="#0a0a0a" fill-opacity="1"><g transform="translate(145.47934, 236.702708)"><g><path d="M 1 -33.015625 L 15.03125 -33.015625 L 15.03125 -32.015625 L 16.03125 -32.015625 L 16.03125 1.453125 L 2 1.453125 L 2 0.453125 L 1 0.453125 Z M 1.5 -0.046875 L 14.53125 -0.046875 L 14.53125 -32.515625 L 1.5 -32.515625 Z M 1.5 -0.046875 "/></g></g></g><g fill="#0a0a0a" fill-opacity="1"><g transform="translate(162.057365, 236.702708)"><g><path d="M 15.1875 1.5 L 1.75 1.5 L 1.75 0.5 L 0.75 0.5 L 0.75 -32.953125 L 14.1875 -32.953125 L 14.125 -31.953125 L 15.1875 -31.953125 L 15.078125 -27.765625 C 15.742188 -29.328125 16.703125 -30.625 17.953125 -31.65625 C 19.203125 -32.6875 20.84375 -33.171875 22.875 -33.109375 C 24.5 -33.078125 25.851562 -32.8125 26.9375 -32.3125 C 28.019531 -31.8125 28.910156 -31.128906 29.609375 -30.265625 C 31.003906 -29.128906 31.925781 -27.59375 32.375 -25.65625 C 32.832031 -23.726562 33.0625 -21.664062 33.0625 -19.46875 L 33.0625 1.5 L 19.875 1.5 L 19.875 0.5 L 18.875 0.5 L 18.875 -15.9375 C 18.875 -16.300781 18.832031 -16.625 18.75 -16.90625 C 18.664062 -17.1875 18.554688 -17.441406 18.421875 -17.671875 C 18.085938 -17.835938 17.773438 -17.921875 17.484375 -17.921875 C 16.910156 -17.921875 16.382812 -17.679688 15.90625 -17.203125 C 15.425781 -16.722656 15.1875 -16 15.1875 -15.03125 Z M 13.6875 -16.03125 C 13.6875 -17.195312 13.96875 -18.0625 14.53125 -18.625 C 15.09375 -19.1875 15.753906 -19.457031 16.515625 -19.4375 C 17.285156 -19.425781 17.953125 -19.128906 18.515625 -18.546875 C 19.085938 -17.960938 19.375 -17.09375 19.375 -15.9375 L 19.375 0 L 31.5625 0 L 31.5625 -20.46875 C 31.5625 -22.070312 31.441406 -23.585938 31.203125 -25.015625 C 30.972656 -26.453125 30.554688 -27.734375 29.953125 -28.859375 C 29.359375 -29.992188 28.488281 -30.894531 27.34375 -31.5625 C 26.195312 -32.226562 24.707031 -32.578125 22.875 -32.609375 C 21.269531 -32.640625 19.914062 -32.332031 18.8125 -31.6875 C 17.71875 -31.039062 16.847656 -30.15625 16.203125 -29.03125 C 15.554688 -27.914062 15.085938 -26.664062 14.796875 -25.28125 C 14.515625 -23.90625 14.359375 -22.503906 14.328125 -21.078125 L 13.6875 -21.078125 L 13.6875 -32.453125 L 1.25 -32.453125 L 1.25 0 L 13.6875 0 Z M 13.6875 -16.03125 "/></g></g></g><g fill="#0a0a0a" fill-opacity="1"><g transform="translate(195.413079, 236.702708)"><g><path d="M 30.765625 1.546875 C 30.765625 1.546875 30.570312 1.5625 30.1875 1.59375 C 29.800781 1.625 29.441406 1.640625 29.109375 1.640625 C 28.148438 1.640625 27.019531 1.566406 25.71875 1.421875 C 24.414062 1.273438 23.203125 0.9375 22.078125 0.40625 L 22.078125 1.75 C 21.703125 1.78125 21.25 1.800781 20.71875 1.8125 C 20.1875 1.832031 19.738281 1.84375 19.375 1.84375 C 16.375 1.84375 13.648438 1.425781 11.203125 0.59375 C 8.765625 -0.238281 6.726562 -1.550781 5.09375 -3.34375 C 3.5625 -4.707031 2.367188 -6.429688 1.515625 -8.515625 C 0.671875 -10.597656 0.25 -13.085938 0.25 -15.984375 C 0.25 -19.273438 0.695312 -22.007812 1.59375 -24.1875 C 2.5 -26.375 3.804688 -28.097656 5.515625 -29.359375 C 7.234375 -30.628906 9.273438 -31.535156 11.640625 -32.078125 C 14.003906 -32.628906 16.632812 -32.90625 19.53125 -32.90625 L 29.8125 -32.90625 L 29.8125 -31.90625 L 30.8125 -31.90625 L 30.8125 -16.484375 C 30.8125 -16.484375 30.546875 -16.457031 30.015625 -16.40625 C 29.484375 -16.351562 28.898438 -16.328125 28.265625 -16.328125 C 27.429688 -16.328125 26.460938 -16.398438 25.359375 -16.546875 C 24.265625 -16.703125 23.191406 -17.003906 22.140625 -17.453125 C 21.097656 -17.898438 20.207031 -18.570312 19.46875 -19.46875 C 18.769531 -20.039062 18.203125 -20.765625 17.765625 -21.640625 C 17.335938 -22.523438 17.109375 -23.601562 17.078125 -24.875 C 17.078125 -25.070312 17.078125 -25.269531 17.078125 -25.46875 C 17.078125 -25.664062 17.09375 -25.863281 17.125 -26.0625 C 16.53125 -25 16.085938 -23.785156 15.796875 -22.421875 C 15.515625 -21.054688 15.320312 -19.707031 15.21875 -18.375 C 15.125 -17.039062 15.078125 -15.859375 15.078125 -14.828125 C 15.078125 -12.929688 15.191406 -11.035156 15.421875 -9.140625 C 15.660156 -7.242188 16.144531 -5.5625 16.875 -4.09375 C 17.613281 -2.625 18.695312 -1.578125 20.125 -0.953125 C 19.625 -1.515625 19.128906 -2.0625 18.640625 -2.59375 C 18.160156 -3.125 17.769531 -3.75 17.46875 -4.46875 C 17.175781 -5.1875 17.03125 -6.09375 17.03125 -7.1875 C 17 -8.75 17.296875 -10.03125 17.921875 -11.03125 C 18.554688 -12.03125 19.378906 -12.804688 20.390625 -13.359375 C 21.410156 -13.910156 22.503906 -14.289062 23.671875 -14.5 C 24.835938 -14.71875 25.953125 -14.851562 27.015625 -14.90625 C 28.078125 -14.957031 28.941406 -14.96875 29.609375 -14.9375 L 29.609375 -13.78125 L 30.765625 -13.78125 Z M 0.75 -15.984375 C 0.78125 -11.847656 1.660156 -8.539062 3.390625 -6.0625 C 5.128906 -3.582031 7.488281 -1.84375 10.46875 -0.84375 C 13.445312 0.15625 16.816406 0.535156 20.578125 0.296875 L 20.578125 -0.34375 C 19.441406 -0.414062 18.429688 -0.898438 17.546875 -1.796875 C 16.671875 -2.691406 15.941406 -3.878906 15.359375 -5.359375 C 14.773438 -6.847656 14.332031 -8.488281 14.03125 -10.28125 C 13.726562 -12.082031 13.578125 -13.929688 13.578125 -15.828125 C 13.578125 -16.992188 13.648438 -18.347656 13.796875 -19.890625 C 13.953125 -21.441406 14.242188 -22.984375 14.671875 -24.515625 C 15.109375 -26.046875 15.742188 -27.382812 16.578125 -28.53125 C 17.410156 -29.6875 18.523438 -30.429688 19.921875 -30.765625 L 20.171875 -30.21875 C 19.410156 -29.675781 18.78125 -28.976562 18.28125 -28.125 C 17.78125 -27.28125 17.546875 -26.195312 17.578125 -24.875 C 17.609375 -23.46875 17.90625 -22.304688 18.46875 -21.390625 C 19.039062 -20.484375 19.773438 -19.78125 20.671875 -19.28125 C 21.566406 -18.78125 22.503906 -18.421875 23.484375 -18.203125 C 24.472656 -17.984375 25.40625 -17.859375 26.28125 -17.828125 C 27.164062 -17.796875 27.890625 -17.800781 28.453125 -17.84375 C 29.023438 -17.894531 29.3125 -17.921875 29.3125 -17.921875 C 29.28125 -20.316406 29.269531 -22.726562 29.28125 -25.15625 C 29.300781 -27.59375 29.3125 -30.007812 29.3125 -32.40625 L 19.53125 -32.40625 C 16.695312 -32.40625 14.128906 -32.140625 11.828125 -31.609375 C 9.535156 -31.078125 7.554688 -30.191406 5.890625 -28.953125 C 4.222656 -27.722656 2.945312 -26.050781 2.0625 -23.9375 C 1.1875 -21.832031 0.75 -19.179688 0.75 -15.984375 Z M 29.359375 -14.375 C 28.859375 -14.375 28.125 -14.363281 27.15625 -14.34375 C 26.195312 -14.332031 25.148438 -14.234375 24.015625 -14.046875 C 22.890625 -13.867188 21.828125 -13.53125 20.828125 -13.03125 C 19.828125 -12.53125 19 -11.8125 18.34375 -10.875 C 17.695312 -9.945312 17.390625 -8.703125 17.421875 -7.140625 C 17.460938 -5.710938 17.765625 -4.539062 18.328125 -3.625 C 18.890625 -2.707031 19.628906 -1.988281 20.546875 -1.46875 C 21.460938 -0.957031 22.425781 -0.59375 23.4375 -0.375 C 24.457031 -0.15625 25.414062 -0.03125 26.3125 0 C 27.21875 0.03125 27.953125 0.03125 28.515625 0 C 29.078125 -0.03125 29.359375 -0.046875 29.359375 -0.046875 Z M 29.359375 -14.375 "/></g></g></g><g fill="#0a0a0a" fill-opacity="1"><g transform="translate(226.821456, 236.702708)"><g><path d="M 14.625 -3.703125 C 14.625 -2.429688 14.300781 -1.363281 13.65625 -0.5 C 13.007812 0.363281 12.175781 1.003906 11.15625 1.421875 C 10.144531 1.835938 9.070312 2.046875 7.9375 2.046875 C 6.84375 2.046875 5.796875 1.84375 4.796875 1.4375 C 3.796875 1.039062 2.976562 0.445312 2.34375 -0.34375 C 1.707031 -0.8125 1.207031 -1.410156 0.84375 -2.140625 C 0.476562 -2.878906 0.296875 -3.726562 0.296875 -4.6875 C 0.296875 -5.988281 0.617188 -7.0625 1.265625 -7.90625 C 1.921875 -8.757812 2.753906 -9.398438 3.765625 -9.828125 C 4.785156 -10.265625 5.84375 -10.484375 6.9375 -10.484375 C 8.039062 -10.484375 9.097656 -10.273438 10.109375 -9.859375 C 11.128906 -9.441406 11.953125 -8.816406 12.578125 -7.984375 C 13.179688 -7.523438 13.671875 -6.9375 14.046875 -6.21875 C 14.429688 -5.5 14.625 -4.660156 14.625 -3.703125 Z M 13.140625 -4.6875 C 13.140625 -6.09375 12.722656 -7.21875 11.890625 -8.0625 C 11.054688 -8.914062 10.03125 -9.484375 8.8125 -9.765625 C 7.59375 -10.046875 6.367188 -10.046875 5.140625 -9.765625 C 3.910156 -9.484375 2.878906 -8.914062 2.046875 -8.0625 C 1.210938 -7.21875 0.796875 -6.09375 0.796875 -4.6875 C 0.796875 -3.289062 1.210938 -2.175781 2.046875 -1.34375 C 2.878906 -0.507812 3.910156 0.046875 5.140625 0.328125 C 6.367188 0.609375 7.59375 0.609375 8.8125 0.328125 C 10.03125 0.046875 11.054688 -0.507812 11.890625 -1.34375 C 12.722656 -2.175781 13.140625 -3.289062 13.140625 -4.6875 Z M 13.140625 -4.6875 "/></g></g></g><g fill="#0a0a0a" fill-opacity="1"><g transform="translate(135.334852, 262.177336)"><g><path d="M 9.90625 -6.90625 L 8.078125 0 L 6.25 0 L 5.0625 -5.734375 L 3.828125 0 L 1.984375 0 L 0.265625 -6.90625 L 1.75 -6.90625 L 2.90625 -1.0625 L 4.125 -6.796875 L 6.0625 -6.796875 L 7.25 -1.046875 L 8.484375 -6.90625 Z M 9.90625 -6.90625 "/></g></g></g><g fill="#0a0a0a" fill-opacity="1"><g transform="translate(145.400961, 262.177336)"><g><path d="M 5.875 -1.09375 L 5.875 0 L 0.890625 0 L 0.890625 -6.90625 L 5.765625 -6.90625 L 5.765625 -5.8125 L 2.265625 -5.8125 L 2.265625 -4 L 5.515625 -4 L 5.515625 -2.90625 L 2.265625 -2.90625 L 2.265625 -1.09375 Z M 5.875 -1.09375 "/></g></g></g><g fill="#0a0a0a" fill-opacity="1"><g transform="translate(151.758531, 262.177336)"><g/></g></g><g fill="#0a0a0a" fill-opacity="1"><g transform="translate(153.897763, 262.177336)"><g><path d="M 8.328125 -6.90625 L 8.328125 0 L 6.953125 0 L 6.953125 -3.1875 C 6.953125 -4.28125 6.957031 -5.066406 6.96875 -5.546875 C 6.78125 -4.742188 6.566406 -3.960938 6.328125 -3.203125 L 5.359375 0 L 3.859375 0 L 2.875 -3.203125 C 2.613281 -4.054688 2.40625 -4.835938 2.25 -5.546875 C 2.257812 -5.054688 2.265625 -4.269531 2.265625 -3.1875 L 2.265625 0 L 0.890625 0 L 0.890625 -6.90625 L 3.0625 -6.90625 L 4.625 -1.265625 L 6.1875 -6.90625 Z M 8.328125 -6.90625 "/></g></g></g><g fill="#0a0a0a" fill-opacity="1"><g transform="translate(163.064217, 262.177336)"><g><path d="M 4.625 -2.078125 L 2.3125 -2.078125 L 1.625 0 L 0.15625 0 L 2.640625 -6.90625 L 4.375 -6.90625 L 6.8125 0 L 5.3125 0 Z M 3.484375 -5.71875 L 2.65625 -3.171875 L 4.28125 -3.171875 Z M 3.484375 -5.71875 "/></g></g></g><g fill="#0a0a0a" fill-opacity="1"><g transform="translate(170.021549, 262.177336)"><g><path d="M 3.84375 -3.59375 L 6.75 0 L 4.96875 0 L 2.84375 -2.796875 L 2.265625 -2.171875 L 2.265625 0 L 0.890625 0 L 0.890625 -6.90625 L 2.265625 -6.90625 L 2.265625 -3.5625 L 5.25 -6.90625 L 6.890625 -6.90625 Z M 3.84375 -3.59375 "/></g></g></g><g fill="#0a0a0a" fill-opacity="1"><g transform="translate(177.04885, 262.177336)"><g><path d="M 5.875 -1.09375 L 5.875 0 L 0.890625 0 L 0.890625 -6.90625 L 5.765625 -6.90625 L 5.765625 -5.8125 L 2.265625 -5.8125 L 2.265625 -4 L 5.515625 -4 L 5.515625 -2.90625 L 2.265625 -2.90625 L 2.265625 -1.09375 Z M 5.875 -1.09375 "/></g></g></g><g fill="#0a0a0a" fill-opacity="1"><g transform="translate(183.406421, 262.177336)"><g/></g></g><g fill="#0a0a0a" fill-opacity="1"><g transform="translate(185.545653, 262.177336)"><g><path d="M 9.90625 -6.90625 L 8.078125 0 L 6.25 0 L 5.0625 -5.734375 L 3.828125 0 L 1.984375 0 L 0.265625 -6.90625 L 1.75 -6.90625 L 2.90625 -1.0625 L 4.125 -6.796875 L 6.0625 -6.796875 L 7.25 -1.046875 L 8.484375 -6.90625 Z M 9.90625 -6.90625 "/></g></g></g><g fill="#0a0a0a" fill-opacity="1"><g transform="translate(195.611761, 262.177336)"><g><path d="M 5.875 -1.09375 L 5.875 0 L 0.890625 0 L 0.890625 -6.90625 L 5.765625 -6.90625 L 5.765625 -5.8125 L 2.265625 -5.8125 L 2.265625 -4 L 5.515625 -4 L 5.515625 -2.90625 L 2.265625 -2.90625 L 2.265625 -1.09375 Z M 5.875 -1.09375 "/></g></g></g><g fill="#0a0a0a" fill-opacity="1"><g transform="translate(201.969332, 262.177336)"><g><path d="M 4.921875 -3.71875 C 5.804688 -3.488281 6.25 -2.9375 6.25 -2.0625 C 6.25 -1.46875 6.0625 -1 5.6875 -0.65625 C 5.320312 -0.320312 4.878906 -0.117188 4.359375 -0.046875 C 4.128906 -0.015625 3.8125 0 3.40625 0 L 0.890625 0 L 0.890625 -6.90625 L 3.359375 -6.90625 C 3.722656 -6.90625 4.019531 -6.890625 4.25 -6.859375 C 4.800781 -6.796875 5.226562 -6.609375 5.53125 -6.296875 C 5.832031 -5.992188 5.984375 -5.609375 5.984375 -5.140625 C 5.984375 -4.441406 5.628906 -3.96875 4.921875 -3.71875 Z M 2.265625 -5.8125 L 2.265625 -4.0625 L 3.3125 -4.0625 C 3.476562 -4.0625 3.640625 -4.070312 3.796875 -4.09375 C 4.296875 -4.175781 4.546875 -4.460938 4.546875 -4.953125 C 4.546875 -5.441406 4.285156 -5.722656 3.765625 -5.796875 C 3.609375 -5.804688 3.441406 -5.8125 3.265625 -5.8125 Z M 3.9375 -1.09375 C 4.1875 -1.113281 4.390625 -1.207031 4.546875 -1.375 C 4.710938 -1.539062 4.796875 -1.765625 4.796875 -2.046875 C 4.796875 -2.628906 4.5 -2.953125 3.90625 -3.015625 C 3.738281 -3.035156 3.578125 -3.046875 3.421875 -3.046875 L 2.265625 -3.046875 L 2.265625 -1.09375 L 3.46875 -1.09375 C 3.6875 -1.09375 3.84375 -1.09375 3.9375 -1.09375 Z M 3.9375 -1.09375 "/></g></g></g><g fill="#0a0a0a" fill-opacity="1"><g transform="translate(208.736738, 262.177336)"><g><path d="M 3.1875 -7.046875 C 3.96875 -7.046875 4.566406 -6.847656 4.984375 -6.453125 C 5.398438 -6.054688 5.648438 -5.53125 5.734375 -4.875 L 4.3125 -4.875 C 4.28125 -5.226562 4.160156 -5.503906 3.953125 -5.703125 C 3.753906 -5.910156 3.476562 -6.015625 3.125 -6.015625 C 2.84375 -6.015625 2.609375 -5.941406 2.421875 -5.796875 C 2.242188 -5.660156 2.15625 -5.457031 2.15625 -5.1875 C 2.15625 -4.894531 2.265625 -4.664062 2.484375 -4.5 C 2.703125 -4.332031 3.082031 -4.1875 3.625 -4.0625 C 4.382812 -3.882812 4.941406 -3.617188 5.296875 -3.265625 C 5.648438 -2.910156 5.828125 -2.457031 5.828125 -1.90625 C 5.828125 -1.269531 5.578125 -0.769531 5.078125 -0.40625 C 4.585938 -0.0390625 3.988281 0.140625 3.28125 0.140625 C 2.4375 0.140625 1.765625 -0.0390625 1.265625 -0.40625 C 0.765625 -0.78125 0.484375 -1.328125 0.421875 -2.046875 L 1.828125 -2.046875 C 1.898438 -1.671875 2.066406 -1.382812 2.328125 -1.1875 C 2.585938 -0.988281 2.898438 -0.890625 3.265625 -0.890625 C 3.578125 -0.890625 3.84375 -0.96875 4.0625 -1.125 C 4.28125 -1.289062 4.390625 -1.503906 4.390625 -1.765625 C 4.390625 -2.054688 4.285156 -2.289062 4.078125 -2.46875 C 3.867188 -2.644531 3.515625 -2.796875 3.015625 -2.921875 C 2.234375 -3.109375 1.648438 -3.351562 1.265625 -3.65625 C 0.890625 -3.96875 0.703125 -4.421875 0.703125 -5.015625 C 0.703125 -5.628906 0.941406 -6.117188 1.421875 -6.484375 C 1.910156 -6.859375 2.5 -7.046875 3.1875 -7.046875 Z M 3.1875 -7.046875 "/></g></g></g><g fill="#0a0a0a" fill-opacity="1"><g transform="translate(215.014336, 262.177336)"><g><path d="M 2.265625 0 L 0.890625 0 L 0.890625 -6.90625 L 2.265625 -6.90625 Z M 2.265625 0 "/></g></g></g><g fill="#0a0a0a" fill-opacity="1"><g transform="translate(218.133183, 262.177336)"><g><path d="M 6.296875 -5.8125 L 3.953125 -5.8125 L 3.953125 0 L 2.5625 0 L 2.5625 -5.8125 L 0.234375 -5.8125 L 0.234375 -6.90625 L 6.296875 -6.90625 Z M 6.296875 -5.8125 "/></g></g></g><g fill="#0a0a0a" fill-opacity="1"><g transform="translate(224.560723, 262.177336)"><g><path d="M 5.875 -1.09375 L 5.875 0 L 0.890625 0 L 0.890625 -6.90625 L 5.765625 -6.90625 L 5.765625 -5.8125 L 2.265625 -5.8125 L 2.265625 -4 L 5.515625 -4 L 5.515625 -2.90625 L 2.265625 -2.90625 L 2.265625 -1.09375 Z M 5.875 -1.09375 "/></g></g></g><g fill="#0a0a0a" fill-opacity="1"><g transform="translate(230.918293, 262.177336)"><g><path d="M 3.1875 -7.046875 C 3.96875 -7.046875 4.566406 -6.847656 4.984375 -6.453125 C 5.398438 -6.054688 5.648438 -5.53125 5.734375 -4.875 L 4.3125 -4.875 C 4.28125 -5.226562 4.160156 -5.503906 3.953125 -5.703125 C 3.753906 -5.910156 3.476562 -6.015625 3.125 -6.015625 C 2.84375 -6.015625 2.609375 -5.941406 2.421875 -5.796875 C 2.242188 -5.660156 2.15625 -5.457031 2.15625 -5.1875 C 2.15625 -4.894531 2.265625 -4.664062 2.484375 -4.5 C 2.703125 -4.332031 3.082031 -4.1875 3.625 -4.0625 C 4.382812 -3.882812 4.941406 -3.617188 5.296875 -3.265625 C 5.648438 -2.910156 5.828125 -2.457031 5.828125 -1.90625 C 5.828125 -1.269531 5.578125 -0.769531 5.078125 -0.40625 C 4.585938 -0.0390625 3.988281 0.140625 3.28125 0.140625 C 2.4375 0.140625 1.765625 -0.0390625 1.265625 -0.40625 C 0.765625 -0.78125 0.484375 -1.328125 0.421875 -2.046875 L 1.828125 -2.046875 C 1.898438 -1.671875 2.066406 -1.382812 2.328125 -1.1875 C 2.585938 -0.988281 2.898438 -0.890625 3.265625 -0.890625 C 3.578125 -0.890625 3.84375 -0.96875 4.0625 -1.125 C 4.28125 -1.289062 4.390625 -1.503906 4.390625 -1.765625 C 4.390625 -2.054688 4.285156 -2.289062 4.078125 -2.46875 C 3.867188 -2.644531 3.515625 -2.796875 3.015625 -2.921875 C 2.234375 -3.109375 1.648438 -3.351562 1.265625 -3.65625 C 0.890625 -3.96875 0.703125 -4.421875 0.703125 -5.015625 C 0.703125 -5.628906 0.941406 -6.117188 1.421875 -6.484375 C 1.910156 -6.859375 2.5 -7.046875 3.1875 -7.046875 Z M 3.1875 -7.046875 "/></g></g></g><g fill="#0a0a0a" fill-opacity="1"><g transform="translate(237.195892, 262.177336)"><g><path d="M 0.609375 -1.296875 C 0.765625 -1.460938 0.96875 -1.546875 1.21875 -1.546875 C 1.46875 -1.546875 1.671875 -1.460938 1.828125 -1.296875 C 1.984375 -1.140625 2.0625 -0.9375 2.0625 -0.6875 C 2.0625 -0.445312 1.984375 -0.25 1.828125 -0.09375 C 1.671875 0.0625 1.46875 0.140625 1.21875 0.140625 C 0.96875 0.140625 0.765625 0.0625 0.609375 -0.09375 C 0.460938 -0.25 0.390625 -0.445312 0.390625 -0.6875 C 0.390625 -0.9375 0.460938 -1.140625 0.609375 -1.296875 Z M 0.609375 -1.296875 "/></g></g></g></svg>